<?xml version="1.0" encoding="UTF-8" standalone="no"?>
<svg
   xmlns:osb="http://www.openswatchbook.org/uri/2009/osb"
   xmlns:dc="http://purl.org/dc/elements/1.1/"
   xmlns:cc="http://creativecommons.org/ns#"
   xmlns:rdf="http://www.w3.org/1999/02/22-rdf-syntax-ns#"
   xmlns:svg="http://www.w3.org/2000/svg"
   xmlns="http://www.w3.org/2000/svg"
   xmlns:xlink="http://www.w3.org/1999/xlink"
   xmlns:sodipodi="http://sodipodi.sourceforge.net/DTD/sodipodi-0.dtd"
   xmlns:inkscape="http://www.inkscape.org/namespaces/inkscape"
   width="92.749115"
   height="23.350996"
   viewBox="0 0 147.84395 37.221955"
   version="1.1"
   id="svg4829"
   sodipodi:docname="apache-openwhisk.svg"
   inkscape:version="0.92.2 5c3e80d, 2017-08-06">
  <metadata
     id="metadata4833">
    <rdf:RDF>
      <cc:Work
         rdf:about="">
        <dc:format>image/svg+xml</dc:format>
        <dc:type
           rdf:resource="http://purl.org/dc/dcmitype/StillImage" />
        <dc:title>logo/apache-openwhisk</dc:title>
      </cc:Work>
    </rdf:RDF>
  </metadata>
  <sodipodi:namedview
     pagecolor="#ffffff"
     bordercolor="#666666"
     borderopacity="1"
     objecttolerance="10"
     gridtolerance="10"
     guidetolerance="10"
     inkscape:pageopacity="0"
     inkscape:pageshadow="2"
     inkscape:window-width="1585"
     inkscape:window-height="904"
     id="namedview4831"
     showgrid="false"
     showguides="true"
     inkscape:zoom="22.102636"
     inkscape:cx="19.766312"
     inkscape:cy="11.675498"
     inkscape:window-x="20"
     inkscape:window-y="24"
     inkscape:window-maximized="0"
     inkscape:current-layer="g107"
     inkscape:pagecheckerboard="true"
     borderlayer="false"
     viewbox-width="116.3"
     viewbox-height="21"
     scale-x="1"
     fit-margin-top="0"
     fit-margin-left="0"
     fit-margin-right="0"
     fit-margin-bottom="0">
    <inkscape:grid
       type="xygrid"
       id="grid4835"
       originx="-0.49853676"
       originy="-3.824419" />
  </sodipodi:namedview>
  <!-- Generator: Sketch 41.2 (35397) - http://www.bohemiancoding.com/sketch -->
  <title
     id="title4812">logo/apache-openwhisk</title>
  <desc
     id="desc4814">Created with Sketch.</desc>
  <defs
     id="defs4816">
    <linearGradient
       id="linearGradient2544"
       osb:paint="solid">
      <stop
         style="stop-color:#000000;stop-opacity:1;"
         offset="0"
         id="stop2542" />
    </linearGradient>
    <color-profile
       name="Adobe-RGB--1998-"
       xlink:href="/System/Library/ColorSync/Profiles/AdobeRGB1998.icc"
       id="color-profile186" />
    <filter
       style="color-interpolation-filters:sRGB"
       inkscape:label="Drop Shadow"
       id="filter4902">
      <feFlood
         flood-opacity="0.498039"
         flood-color="rgb(0,0,0)"
         result="flood"
         id="feFlood4892" />
      <feComposite
         in="flood"
         in2="SourceGraphic"
         operator="in"
         result="composite1"
         id="feComposite4894" />
      <feGaussianBlur
         in="composite1"
         stdDeviation="2"
         result="blur"
         id="feGaussianBlur4896" />
      <feOffset
         dx="6"
         dy="6"
         result="offset"
         id="feOffset4898" />
      <feComposite
         in="SourceGraphic"
         in2="offset"
         operator="over"
         result="fbSourceGraphic"
         id="feComposite4900" />
      <feColorMatrix
         result="fbSourceGraphicAlpha"
         in="fbSourceGraphic"
         values="0 0 0 -1 0 0 0 0 -1 0 0 0 0 -1 0 0 0 0 1 0"
         id="feColorMatrix4988" />
      <feFlood
         id="feFlood4990"
         flood-opacity="0.498039"
         flood-color="rgb(0,0,0)"
         result="flood"
         in="fbSourceGraphic" />
      <feComposite
         in2="fbSourceGraphic"
         id="feComposite4992"
         in="flood"
         operator="in"
         result="composite1" />
      <feGaussianBlur
         id="feGaussianBlur4994"
         in="composite1"
         stdDeviation="1"
         result="blur" />
      <feOffset
         id="feOffset4996"
         dx="6"
         dy="6"
         result="offset" />
      <feComposite
         in2="offset"
         id="feComposite4998"
         in="fbSourceGraphic"
         operator="over"
         result="fbSourceGraphic" />
      <feColorMatrix
         result="fbSourceGraphicAlpha"
         in="fbSourceGraphic"
         values="0 0 0 -1 0 0 0 0 -1 0 0 0 0 -1 0 0 0 0 1 0"
         id="feColorMatrix5000" />
      <feFlood
         id="feFlood5002"
         flood-opacity="0.498039"
         flood-color="rgb(0,0,0)"
         result="flood"
         in="fbSourceGraphic" />
      <feComposite
         in2="fbSourceGraphic"
         id="feComposite5004"
         in="flood"
         operator="in"
         result="composite1" />
      <feGaussianBlur
         id="feGaussianBlur5006"
         in="composite1"
         stdDeviation="1"
         result="blur" />
      <feOffset
         id="feOffset5008"
         dx="6"
         dy="6"
         result="offset" />
      <feComposite
         in2="offset"
         id="feComposite5010"
         in="fbSourceGraphic"
         operator="over"
         result="fbSourceGraphic" />
      <feColorMatrix
         result="fbSourceGraphicAlpha"
         in="fbSourceGraphic"
         values="0 0 0 -1 0 0 0 0 -1 0 0 0 0 -1 0 0 0 0 1 0"
         id="feColorMatrix5012" />
      <feFlood
         id="feFlood5014"
         flood-opacity="0.498039"
         flood-color="rgb(0,0,0)"
         result="flood"
         in="fbSourceGraphic" />
      <feComposite
         in2="fbSourceGraphic"
         id="feComposite5016"
         in="flood"
         operator="in"
         result="composite1" />
      <feGaussianBlur
         id="feGaussianBlur5018"
         in="composite1"
         stdDeviation="1"
         result="blur" />
      <feOffset
         id="feOffset5020"
         dx="6"
         dy="6"
         result="offset" />
      <feComposite
         in2="offset"
         id="feComposite5022"
         in="fbSourceGraphic"
         operator="over"
         result="fbSourceGraphic" />
      <feColorMatrix
         result="fbSourceGraphicAlpha"
         in="fbSourceGraphic"
         values="0 0 0 -1 0 0 0 0 -1 0 0 0 0 -1 0 0 0 0 1 0"
         id="feColorMatrix5024" />
      <feFlood
         id="feFlood5026"
         flood-opacity="0.498039"
         flood-color="rgb(0,0,0)"
         result="flood"
         in="fbSourceGraphic" />
      <feComposite
         in2="fbSourceGraphic"
         id="feComposite5028"
         in="flood"
         operator="in"
         result="composite1" />
      <feGaussianBlur
         id="feGaussianBlur5030"
         in="composite1"
         stdDeviation="1"
         result="blur" />
      <feOffset
         id="feOffset5032"
         dx="6"
         dy="6"
         result="offset" />
      <feComposite
         in2="offset"
         id="feComposite5034"
         in="fbSourceGraphic"
         operator="over"
         result="fbSourceGraphic" />
      <feColorMatrix
         result="fbSourceGraphicAlpha"
         in="fbSourceGraphic"
         values="0 0 0 -1 0 0 0 0 -1 0 0 0 0 -1 0 0 0 0 1 0"
         id="feColorMatrix5036" />
      <feFlood
         id="feFlood5038"
         flood-opacity="0.498039"
         flood-color="rgb(0,0,0)"
         result="flood"
         in="fbSourceGraphic" />
      <feComposite
         in2="fbSourceGraphic"
         id="feComposite5040"
         in="flood"
         operator="in"
         result="composite1" />
      <feGaussianBlur
         id="feGaussianBlur5042"
         in="composite1"
         stdDeviation="1"
         result="blur" />
      <feOffset
         id="feOffset5044"
         dx="6"
         dy="6"
         result="offset" />
      <feComposite
         in2="offset"
         id="feComposite5046"
         in="fbSourceGraphic"
         operator="over"
         result="composite2" />
    </filter>
    <filter
       style="color-interpolation-filters:sRGB"
       inkscape:label="Drop Shadow"
       id="filter569">
      <feFlood
         flood-opacity="0.498039"
         flood-color="rgb(0,0,0)"
         result="flood"
         id="feFlood559" />
      <feComposite
         in="flood"
         in2="SourceGraphic"
         operator="in"
         result="composite1"
         id="feComposite561" />
      <feGaussianBlur
         in="composite1"
         stdDeviation="1.38778e-16"
         result="blur"
         id="feGaussianBlur563" />
      <feOffset
         dx="0.2"
         dy="0.2"
         result="offset"
         id="feOffset565" />
      <feComposite
         in="SourceGraphic"
         in2="offset"
         operator="over"
         result="composite2"
         id="feComposite567" />
    </filter>
    <filter
       style="color-interpolation-filters:sRGB"
       inkscape:label="Drop Shadow"
       id="filter895">
      <feFlood
         flood-opacity="0.498039"
         flood-color="rgb(255,255,255)"
         result="flood"
         id="feFlood885" />
      <feComposite
         in="flood"
         in2="SourceGraphic"
         operator="in"
         result="composite1"
         id="feComposite887" />
      <feGaussianBlur
         in="composite1"
         stdDeviation="1.38778e-16"
         result="blur"
         id="feGaussianBlur889" />
      <feOffset
         dx="-0.2"
         dy="-2.77556e-17"
         result="offset"
         id="feOffset891" />
      <feComposite
         in="SourceGraphic"
         in2="offset"
         operator="over"
         result="composite2"
         id="feComposite893" />
    </filter>
    <filter
       style="color-interpolation-filters:sRGB"
       inkscape:label="Drop Shadow"
       id="filter946">
      <feFlood
         flood-opacity="0.498039"
         flood-color="rgb(0,0,0)"
         result="flood"
         id="feFlood936" />
      <feComposite
         in="flood"
         in2="SourceGraphic"
         operator="in"
         result="composite1"
         id="feComposite938" />
      <feGaussianBlur
         in="composite1"
         stdDeviation="1.38778e-16"
         result="blur"
         id="feGaussianBlur940" />
      <feOffset
         dx="-0.2"
         dy="-2.77556e-17"
         result="offset"
         id="feOffset942" />
      <feComposite
         in="SourceGraphic"
         in2="offset"
         operator="over"
         result="composite2"
         id="feComposite944" />
    </filter>
    <filter
       style="color-interpolation-filters:sRGB"
       inkscape:label="Drop Shadow"
       id="filter1214">
      <feFlood
         flood-opacity="0.498039"
         flood-color="rgb(0,0,0)"
         result="flood"
         id="feFlood1204" />
      <feComposite
         in="flood"
         in2="SourceGraphic"
         operator="in"
         result="composite1"
         id="feComposite1206" />
      <feGaussianBlur
         in="composite1"
         stdDeviation="1.38778e-16"
         result="blur"
         id="feGaussianBlur1208" />
      <feOffset
         dx="-0.1"
         dy="0.1"
         result="offset"
         id="feOffset1210" />
      <feComposite
         in="SourceGraphic"
         in2="offset"
         operator="over"
         result="composite2"
         id="feComposite1212" />
    </filter>
    <filter
       style="color-interpolation-filters:sRGB"
       inkscape:label="Drop Shadow"
       id="filter1437">
      <feFlood
         flood-opacity="0.498039"
         flood-color="rgb(255,255,255)"
         result="flood"
         id="feFlood1427" />
      <feComposite
         in="flood"
         in2="SourceGraphic"
         operator="in"
         result="composite1"
         id="feComposite1429" />
      <feGaussianBlur
         in="composite1"
         stdDeviation="1.38778e-16"
         result="blur"
         id="feGaussianBlur1431" />
      <feOffset
         dx="0.1"
         dy="0.1"
         result="offset"
         id="feOffset1433" />
      <feComposite
         in="SourceGraphic"
         in2="offset"
         operator="over"
         result="composite2"
         id="feComposite1435" />
    </filter>
    <clipPath
       clipPathUnits="userSpaceOnUse"
       id="clipPath2252">
      <rect
         style="fill:none;fill-opacity:1;stroke:#000000;stroke-width:0.93708497;stroke-linecap:butt;stroke-linejoin:miter;stroke-opacity:1;paint-order:fill markers stroke"
         id="rect2254"
         width="15.335663"
         height="17.757502"
         x="15.284907"
         y="-0.22932915"
         ry="0.37528363" />
    </clipPath>
    <clipPath
       clipPathUnits="userSpaceOnUse"
       id="clipPath2270">
      <rect
         style="fill:none;fill-opacity:1;stroke:#000000;stroke-width:0;stroke-linecap:butt;stroke-linejoin:miter;stroke-miterlimit:4;stroke-dasharray:none;stroke-opacity:1;paint-order:fill markers stroke"
         id="rect2272"
         width="11.395495"
         height="9.0284157"
         x="9.1991491"
         y="-0.064093582"
         ry="0.35968757" />
    </clipPath>
    <filter
       style="color-interpolation-filters:sRGB"
       inkscape:label="Drop Shadow"
       id="filter2408">
      <feFlood
         flood-opacity="0.498039"
         flood-color="rgb(0,0,0)"
         result="flood"
         id="feFlood2398" />
      <feComposite
         in="flood"
         in2="SourceGraphic"
         operator="in"
         result="composite1"
         id="feComposite2400" />
      <feGaussianBlur
         in="composite1"
         stdDeviation="1.38778e-16"
         result="blur"
         id="feGaussianBlur2402" />
      <feOffset
         dx="-0.1"
         dy="0.1"
         result="offset"
         id="feOffset2404" />
      <feComposite
         in="SourceGraphic"
         in2="offset"
         operator="over"
         result="composite2"
         id="feComposite2406" />
    </filter>
    <clipPath
       clipPathUnits="userSpaceOnUse"
       id="clipPath2418">
      <rect
         style="fill:none;fill-opacity:1;stroke:#000000;stroke-width:0;stroke-linecap:butt;stroke-linejoin:miter;stroke-miterlimit:4;stroke-dasharray:none;stroke-opacity:1;paint-order:fill markers stroke"
         id="rect2420"
         width="11.568389"
         height="8.9488811"
         x="10.364887"
         y="-0.055517841"
         ry="0.37048745" />
    </clipPath>
    <filter
       style="color-interpolation-filters:sRGB"
       inkscape:label="Drop Shadow"
       id="filter2530">
      <feFlood
         flood-opacity="0.498039"
         flood-color="rgb(255,255,255)"
         result="flood"
         id="feFlood2520" />
      <feComposite
         in="flood"
         in2="SourceGraphic"
         operator="in"
         result="composite1"
         id="feComposite2522" />
      <feGaussianBlur
         in="composite1"
         stdDeviation="1.38778e-16"
         result="blur"
         id="feGaussianBlur2524" />
      <feOffset
         dx="-0.1"
         dy="0"
         result="offset"
         id="feOffset2526" />
      <feComposite
         in="SourceGraphic"
         in2="offset"
         operator="over"
         result="composite2"
         id="feComposite2528" />
    </filter>
    <clipPath
       clipPathUnits="userSpaceOnUse"
       id="clipPath2538">
      <rect
         style="fill:none;fill-opacity:1;stroke:#000000;stroke-width:0;stroke-linecap:butt;stroke-linejoin:miter;stroke-miterlimit:4;stroke-dasharray:none;stroke-opacity:1;paint-order:fill markers stroke"
         id="rect2540"
         width="14.630958"
         height="17.226913"
         x="-0.16488507"
         y="2.4576325"
         ry="0.37048745" />
    </clipPath>
  </defs>
  <rect
     style="display:none;fill:#29558f;fill-opacity:1;stroke:none;stroke-width:2.73128748"
     id="rect1439"
     width="147.54344"
     height="37.564098"
     x="0.10816978"
     y="0.10966741"
     inkscape:label="Test Background" />
  <path
     inkscape:label="OpenWhisk"
     inkscape:connector-curvature="0"
     style="display:inline;fill:#ffffff;stroke-width:1.5756135"
     id="path130"
     d="m 64.108007,23.045812 c 0,1.372625 -0.161706,2.632263 -0.485123,3.778958 -0.323415,1.146692 -0.779998,2.133517 -1.369757,2.960499 -0.589759,0.826983 -1.298412,1.468528 -2.125977,1.924646 -0.827566,0.456119 -1.742314,0.684176 -2.744271,0.684176 -1.001958,0 -1.915119,-0.228057 -2.739515,-0.684176 -0.824395,-0.456118 -1.531462,-1.097663 -2.121221,-1.924646 -0.589759,-0.826982 -1.046342,-1.813807 -1.369757,-2.960499 -0.323417,-1.146695 -0.485123,-2.406333 -0.485123,-3.778958 0,-1.372621 0.161706,-2.632262 0.485123,-3.778954 0.323415,-1.146694 0.779998,-2.135649 1.369757,-2.966897 0.589759,-0.831245 1.296826,-1.47705 2.121221,-1.937432 0.824396,-0.460384 1.737557,-0.690571 2.739515,-0.690571 1.001957,0 1.916705,0.230187 2.744271,0.690571 0.827565,0.460382 1.536218,1.106187 2.125977,1.937432 0.589759,0.831248 1.046342,1.820203 1.369757,2.966897 0.323417,1.146692 0.485123,2.406333 0.485123,3.778954 z m -1.892928,0 c 0,-1.12538 -0.114147,-2.135649 -0.34244,-3.030836 -0.228295,-0.89519 -0.551706,-1.651825 -0.970245,-2.26993 -0.418539,-0.618108 -0.925851,-1.093402 -1.521953,-1.425901 -0.5961,-0.332499 -1.261948,-0.498747 -1.997562,-0.498747 -0.729273,0 -1.39195,0.166248 -1.98805,0.498747 -0.596102,0.332499 -1.104999,0.807793 -1.526709,1.425901 -0.42171,0.618105 -0.746707,1.37474 -0.975001,2.26993 -0.228295,0.895187 -0.342439,1.905456 -0.342439,3.030836 0,1.125381 0.114146,2.133517 0.342439,3.024443 0.228294,0.890927 0.553291,1.645431 0.975001,2.263537 0.42171,0.618106 0.930607,1.091272 1.526709,1.419506 0.5961,0.328237 1.258777,0.492352 1.98805,0.492352 0.735614,0 1.401462,-0.164111 1.997562,-0.492352 0.596102,-0.328234 1.103414,-0.8014 1.521953,-1.419506 0.418539,-0.618106 0.74195,-1.37261 0.970245,-2.263537 0.228294,-0.890926 0.34244,-1.899062 0.34244,-3.024443 z m 5.640736,6.0361 c 0.310734,0.56269 0.649999,0.959124 1.017806,1.189314 0.367807,0.230192 0.779998,0.345285 1.236587,0.345285 0.900493,0 1.591707,-0.430536 2.07366,-1.291622 0.481953,-0.861085 0.722928,-2.088753 0.722928,-3.683041 0,-0.844037 -0.05548,-1.568701 -0.166464,-2.17402 -0.11098,-0.605317 -0.271097,-1.101926 -0.480366,-1.489841 -0.209271,-0.387916 -0.466097,-0.671388 -0.770489,-0.850424 -0.304392,-0.179038 -0.649999,-0.268555 -1.03683,-0.268555 -0.55171,0 -1.035244,0.170504 -1.450612,0.511533 -0.415368,0.341022 -0.797437,0.822712 -1.14622,1.445083 z m -0.08561,-7.826465 c 0.405856,-0.673525 0.875121,-1.214892 1.407807,-1.62412 0.532685,-0.409231 1.14146,-0.613843 1.826343,-0.613843 0.558052,0 1.062193,0.142808 1.51244,0.428411 0.450247,0.285608 0.833903,0.707617 1.150976,1.266044 0.317075,0.558429 0.561219,1.251124 0.732441,2.078108 0.171221,0.826982 0.256829,1.777574 0.256829,2.851801 0,0.954867 -0.09513,1.843647 -0.285366,2.666368 -0.190246,0.822721 -0.464511,1.534598 -0.822806,2.135653 -0.358295,0.601056 -0.795852,1.074221 -1.312684,1.419506 -0.516832,0.345287 -1.098657,0.517928 -1.745489,0.517928 -0.589759,0 -1.095487,-0.134278 -1.517196,-0.402832 -0.42171,-0.268556 -0.794269,-0.641547 -1.117684,-1.118981 v 5.729178 H 66.15313 V 19.247676 h 1.017806 c 0.240977,0 0.39,0.157716 0.447073,0.473169 z m 15.49538,3.056413 c 0,-0.528587 -0.05548,-1.012409 -0.166464,-1.451478 -0.110979,-0.439069 -0.272682,-0.818453 -0.485122,-1.138162 -0.212439,-0.31971 -0.470853,-0.566948 -0.775244,-0.741724 -0.304392,-0.17478 -0.649999,-0.262162 -1.036831,-0.262162 -0.811711,0 -1.45378,0.317574 -1.92622,0.952733 -0.472442,0.635157 -0.765733,1.515411 -0.879879,2.640793 z m 1.369758,6.074462 c -0.20927,0.341023 -0.459755,0.637284 -0.751465,0.88879 -0.291709,0.251505 -0.604023,0.458247 -0.936951,0.620234 -0.332929,0.16199 -0.67695,0.283475 -1.032075,0.364468 -0.355124,0.08098 -0.707071,0.121492 -1.055854,0.121492 -0.665857,0 -1.279389,-0.151322 -1.840611,-0.453986 -0.561223,-0.302657 -1.046342,-0.745981 -1.455368,-1.329987 -0.409027,-0.584003 -0.727682,-1.306537 -0.955977,-2.167625 -0.228293,-0.861085 -0.342439,-1.850039 -0.342439,-2.966893 0,-0.903716 0.103045,-1.747738 0.309147,-2.532092 0.206098,-0.784358 0.50256,-1.464265 0.889391,-2.039741 0.386832,-0.575479 0.859266,-1.02733 1.417319,-1.355567 0.558052,-0.328235 1.18585,-0.492349 1.883416,-0.492349 0.577077,0 1.111339,0.130021 1.602806,0.390045 0.491466,0.260031 0.91634,0.635151 1.274636,1.125374 0.358294,0.490221 0.638901,1.09553 0.841829,1.815944 0.202929,0.720414 0.304391,1.540991 0.304391,2.461757 0,0.358074 -0.02853,0.596788 -0.08561,0.716145 -0.05708,0.119348 -0.164878,0.179037 -0.323414,0.179037 h -6.439763 c 0.01903,0.818458 0.103045,1.530335 0.252074,2.135652 0.149024,0.605319 0.356706,1.110453 0.623049,1.51542 0.266343,0.404964 0.583413,0.707619 0.95122,0.907973 0.367807,0.20035 0.779998,0.300524 1.236587,0.300524 0.424881,0 0.791096,-0.06608 1.09866,-0.198219 0.307562,-0.132141 0.572316,-0.274948 0.794268,-0.42841 0.221953,-0.153461 0.40744,-0.296262 0.556465,-0.428408 0.149024,-0.132139 0.277438,-0.198221 0.385243,-0.198221 0.139514,0 0.247318,0.07247 0.323416,0.217404 z m 3.823905,-9.258759 c 0.209271,-0.315449 0.431219,-0.601053 0.665855,-0.856821 0.234636,-0.255767 0.483535,-0.4753 0.746708,-0.6586 0.263172,-0.183299 0.542194,-0.323971 0.837073,-0.422015 0.29488,-0.09805 0.613536,-0.147066 0.955977,-0.147066 0.526345,0 0.990853,0.117229 1.393538,0.351677 0.402686,0.234455 0.738781,0.566949 1.008294,0.997493 0.269513,0.430541 0.474024,0.948466 0.613537,1.553783 0.139513,0.605318 0.209268,1.274567 0.209268,2.007768 v 8.248482 h -1.702684 v -8.248482 c 0,-0.980444 -0.166463,-1.741342 -0.499391,-2.282717 -0.332928,-0.541377 -0.838656,-0.812059 -1.517196,-0.812059 -0.50098,0 -0.968658,0.161973 -1.403051,0.485956 -0.434392,0.323973 -0.835486,0.763035 -1.203293,1.3172 v 9.540102 h -1.702685 v -12.95459 h 1.017805 c 0.240977,0 0.39,0.157717 0.447074,0.473168 z m 26.206122,-7.250991 -4.25196,18.325695 h -1.65512 l -3.45293,-13.977658 c -0.0317,-0.136416 -0.0618,-0.281344 -0.0903,-0.434805 l -0.0903,-0.485956 c -0.0317,0.170505 -0.0634,0.332495 -0.0951,0.485956 -0.0317,0.153461 -0.0634,0.298395 -0.0952,0.434805 L 101.4625,32.202267 H 99.807312 L 95.555353,13.876572 h 1.531464 c 0.16488,0 0.302805,0.05541 0.413781,0.166248 0.11098,0.110834 0.182318,0.251503 0.214025,0.422015 l 2.815617,12.737191 c 0.0444,0.23019 0.0872,0.477428 0.12842,0.741721 0.0412,0.264295 0.0808,0.545635 0.1189,0.844032 0.0444,-0.298397 0.0903,-0.581869 0.13792,-0.850424 0.0476,-0.268557 0.0999,-0.513665 0.15695,-0.735329 l 3.20561,-12.737191 c 0.0381,-0.144936 0.11256,-0.279212 0.22355,-0.402833 0.11097,-0.123625 0.24572,-0.18543 0.40426,-0.18543 h 0.53269 c 0.16488,0 0.29804,0.05541 0.39951,0.166248 0.10147,0.110834 0.17756,0.251503 0.22829,0.422015 l 3.1961,12.737191 c 0.0571,0.221664 0.1094,0.460378 0.15695,0.716145 0.0476,0.255768 0.0935,0.524323 0.13793,0.805666 0.0317,-0.281343 0.0666,-0.549898 0.10463,-0.805666 0.0381,-0.255767 0.0793,-0.494481 0.12366,-0.716145 l 2.82513,-12.737191 c 0.0317,-0.153461 0.10304,-0.289869 0.21402,-0.409228 0.11098,-0.11936 0.24573,-0.179035 0.40427,-0.179035 z m 3.24366,7.097529 c 0.4122,-0.588267 0.86878,-1.057167 1.36977,-1.406718 0.50097,-0.349549 1.07804,-0.524321 1.73121,-0.524321 0.52635,0 0.99086,0.117229 1.39354,0.351679 0.40269,0.234455 0.73878,0.566948 1.0083,0.997492 0.26951,0.430541 0.47403,0.948465 0.61353,1.553783 0.13952,0.605319 0.20928,1.274567 0.20928,2.007767 v 8.248484 h -1.70269 v -8.248484 c 0,-0.980443 -0.16646,-1.741341 -0.4994,-2.282716 -0.33292,-0.541376 -0.83865,-0.812059 -1.51718,-0.812059 -0.50099,0 -0.96867,0.161973 -1.40306,0.485957 -0.43439,0.323972 -0.83549,0.763033 -1.2033,1.317198 v 9.540104 h -1.70268 V 13.365038 h 1.70268 z m 10.70123,-1.726425 v 12.954591 h -1.69317 V 19.247676 Z m 0.36147,-4.066694 c 0,0.221666 -0.0332,0.428409 -0.0999,0.620234 -0.0666,0.191826 -0.15537,0.362336 -0.26635,0.511534 -0.11098,0.149197 -0.24097,0.266424 -0.39,0.35168 -0.14902,0.08525 -0.30598,0.127876 -0.47085,0.127876 -0.16488,0 -0.31866,-0.04262 -0.46134,-0.127876 -0.14269,-0.08526 -0.26793,-0.202482 -0.37574,-0.35168 -0.1078,-0.149197 -0.19341,-0.319708 -0.25682,-0.511534 -0.0634,-0.191825 -0.0952,-0.398568 -0.0952,-0.620234 0,-0.221665 0.0317,-0.432671 0.0952,-0.633023 0.0634,-0.200351 0.14902,-0.375123 0.25682,-0.524323 0.1078,-0.149197 0.23305,-0.266422 0.37574,-0.351678 0.14268,-0.08526 0.29646,-0.127889 0.46134,-0.127889 0.16487,0 0.32183,0.04263 0.47085,0.127889 0.14903,0.08525 0.27902,0.202481 0.39,0.351678 0.11098,0.1492 0.19975,0.323972 0.26635,0.524323 0.0666,0.200352 0.0999,0.411358 0.0999,0.633023 z m 8.02831,6.202345 c -0.0761,0.187565 -0.19343,0.281346 -0.35196,0.281346 -0.0951,0 -0.20292,-0.0469 -0.32341,-0.140672 -0.1205,-0.09378 -0.26794,-0.198217 -0.44232,-0.313315 -0.17439,-0.115096 -0.38208,-0.221664 -0.62306,-0.319706 -0.24097,-0.09805 -0.52633,-0.147066 -0.85609,-0.147066 -0.28537,0 -0.54219,0.04902 -0.77048,0.147066 -0.2283,0.09805 -0.4233,0.232321 -0.58501,0.402833 -0.16171,0.170505 -0.28537,0.368728 -0.37097,0.594658 -0.0856,0.225927 -0.12842,0.471034 -0.12842,0.735328 0,0.332498 0.0713,0.609579 0.21402,0.831244 0.14269,0.221664 0.33134,0.413486 0.56598,0.575476 0.23463,0.16199 0.50097,0.304786 0.79903,0.428408 0.29805,0.123625 0.60402,0.255766 0.91792,0.39644 0.31391,0.140672 0.61988,0.296261 0.91793,0.466773 0.29805,0.170507 0.56439,0.383649 0.79903,0.639416 0.23463,0.255769 0.42329,0.569081 0.56597,0.939943 0.14269,0.370866 0.21403,0.81632 0.21403,1.336384 0,0.596793 -0.0792,1.148815 -0.23781,1.656088 -0.15854,0.507276 -0.39317,0.946336 -0.7039,1.3172 -0.31074,0.370865 -0.69122,0.662862 -1.14147,0.876002 -0.45024,0.213141 -0.97024,0.319711 -1.56,0.319711 -0.6722,0 -1.28098,-0.147066 -1.82634,-0.441201 -0.54537,-0.294131 -1.0083,-0.671384 -1.38878,-1.131768 l 0.39951,-0.869607 c 0.0507,-0.110834 0.11098,-0.196087 0.18073,-0.255765 0.0698,-0.05968 0.15854,-0.08952 0.26635,-0.08952 0.11414,0 0.23463,0.05968 0.36145,0.179038 0.12683,0.119349 0.28061,0.251505 0.46135,0.396438 0.18073,0.144928 0.4011,0.277082 0.6611,0.396439 0.26,0.119349 0.58341,0.179037 0.97025,0.179037 0.32975,0 0.61829,-0.05755 0.86561,-0.172642 0.24731,-0.115097 0.4534,-0.270685 0.61828,-0.466776 0.16488,-0.196086 0.28696,-0.422012 0.36623,-0.677781 0.0793,-0.255767 0.1189,-0.528582 0.1189,-0.818454 0,-0.358073 -0.0713,-0.654336 -0.21403,-0.88879 -0.14268,-0.234452 -0.33133,-0.434802 -0.56597,-0.60105 -0.23464,-0.166248 -0.50257,-0.311183 -0.80378,-0.434804 -0.30123,-0.123625 -0.60879,-0.253635 -0.92269,-0.390047 -0.3139,-0.136414 -0.62146,-0.291997 -0.92269,-0.466772 -0.30121,-0.17478 -0.56914,-0.394307 -0.80377,-0.658602 -0.23463,-0.264292 -0.4233,-0.590391 -0.56598,-0.978307 -0.14268,-0.387915 -0.21403,-0.858947 -0.21403,-1.413111 0,-0.494484 0.0761,-0.969782 0.2283,-1.4259 0.1522,-0.456121 0.37414,-0.85682 0.66586,-1.202105 0.29171,-0.345286 0.64999,-0.620234 1.07488,-0.824848 0.42487,-0.204615 0.91,-0.30692 1.45536,-0.30692 0.63415,0 1.20329,0.134278 1.70744,0.402833 0.50415,0.268556 0.94012,0.637284 1.30793,1.106191 z m 4.32804,-8.018289 v 11.087493 h 0.43756 c 0.12679,0 0.23305,-0.02344 0.31866,-0.07034 0.0856,-0.04689 0.17598,-0.142807 0.2711,-0.287738 l 3.0439,-4.386402 c 0.0887,-0.144928 0.18233,-0.257897 0.28061,-0.33889 0.0983,-0.08098 0.22989,-0.121492 0.39476,-0.121492 h 1.53147 l -3.54806,5.076971 c -0.17121,0.28987 -0.35511,0.515794 -0.5517,0.677783 0.11414,0.10231 0.21719,0.219532 0.30914,0.351679 0.092,0.13214 0.17914,0.283474 0.26159,0.453986 l 3.76684,6.394171 h -1.51245 c -0.14585,0 -0.27109,-0.03196 -0.37573,-0.09591 -0.10463,-0.06395 -0.195,-0.181175 -0.2711,-0.351682 l -3.16756,-5.307162 c -0.0952,-0.179038 -0.18866,-0.296263 -0.28061,-0.351679 -0.092,-0.0554 -0.23305,-0.08312 -0.42329,-0.08312 h -0.48513 v 6.189557 H 139.6254 V 13.365038 Z" />
  <path
     inkscape:label="APACHE"
     inkscape:connector-curvature="0"
     style="display:inline;fill:#ffffff;stroke-width:0.9632951;filter:url(#filter4902)"
     id="path114"
     d="M 51.951556,5.7165661 51.203613,3.9134612 C 51.149763,3.790448 51.095926,3.6350653 51.042085,3.4473084 c -0.02576,0.092799 -0.05209,0.1791231 -0.07901,0.2589738 -0.02692,0.079851 -0.05325,0.1510677 -0.07901,0.2136533 l -0.744432,1.7966306 z m 1.478329,1.7318871 h -0.575881 c -0.06555,0 -0.11939,-0.015106 -0.161528,-0.04532 -0.04214,-0.030214 -0.07257,-0.069059 -0.09129,-0.1165382 L 52.155221,6.2086163 h -2.22276 l -0.445957,1.0779783 c -0.01638,0.041005 -0.04682,0.078231 -0.09129,0.1116825 -0.04447,0.033451 -0.09832,0.050176 -0.161528,0.050176 H 48.657799 L 50.66636,2.799874 h 0.754966 z m 3.03391,-2.256309 c 0.18962,0 0.356413,-0.02266 0.500384,-0.067981 0.143971,-0.04532 0.26453,-0.1095239 0.361682,-0.1926117 0.09715,-0.083088 0.170306,-0.1823601 0.219467,-0.2978199 0.04916,-0.1154597 0.07374,-0.2433268 0.07374,-0.3836049 0,-0.2827144 -0.09539,-0.504998 -0.286185,-0.6668575 -0.190791,-0.161859 -0.480484,-0.2427875 -0.869088,-0.2427875 h -0.779546 v 1.8516625 z m 0,-2.3922702 c 0.323056,0 0.603972,0.03453 0.842752,0.1035895 0.238781,0.06906 0.436592,0.1667137 0.593439,0.2929641 0.156846,0.1262503 0.273309,0.2789354 0.349391,0.4580598 0.07608,0.1791244 0.114121,0.377669 0.114121,0.5956397 0,0.2179707 -0.04096,0.4181338 -0.122902,0.6004955 -0.08194,0.1823616 -0.202495,0.3393628 -0.361681,0.4710085 -0.159188,0.1316456 -0.357583,0.2336155 -0.595194,0.3059128 -0.237611,0.072297 -0.510918,0.1084452 -0.819928,0.1084452 H 55.684249 V 7.4484532 H 54.936306 V 2.799874 Z M 62.391156,5.7165661 61.643213,3.9134612 C 61.589363,3.790448 61.535526,3.6350653 61.481685,3.4473084 c -0.02576,0.092799 -0.05209,0.1791231 -0.07901,0.2589738 -0.02692,0.079851 -0.05325,0.1510677 -0.07901,0.2136533 l -0.744432,1.7966306 z m 1.478329,1.7318871 h -0.575881 c -0.06555,0 -0.119391,-0.015107 -0.161528,-0.04532 -0.04214,-0.030214 -0.07257,-0.069059 -0.09129,-0.1165382 L 62.594821,6.2086163 h -2.22276 l -0.445957,1.0779783 c -0.01638,0.041005 -0.04682,0.078231 -0.09129,0.1116825 -0.04447,0.033451 -0.09832,0.050176 -0.161527,0.050176 H 59.0974 l 2.008561,-4.6485792 h 0.754966 z m 4.891477,-0.997049 c 0.04214,0 0.07842,0.015106 0.108859,0.04532 l 0.294963,0.2978199 c -0.20601,0.2244454 -0.457078,0.3981719 -0.753213,0.5211851 -0.296135,0.1230132 -0.652547,0.1845188 -1.069243,0.1845188 -0.365195,0 -0.695855,-0.058268 -0.99199,-0.1748073 C 66.054203,7.2089019 65.801379,7.0459659 65.59186,6.8366277 65.382342,6.6272895 65.22023,6.3769507 65.105522,6.0856037 64.990814,5.7942568 64.93346,5.47378 64.93346,5.1241636 c 0,-0.3496164 0.06027,-0.6700932 0.180841,-0.9614401 0.120561,-0.291347 0.289695,-0.5416858 0.507407,-0.751024 0.217712,-0.2093382 0.478143,-0.3722742 0.781302,-0.488813 0.303158,-0.1165388 0.638501,-0.1748073 1.006037,-0.1748073 0.358171,0 0.676541,0.053952 0.955119,0.1618586 0.278579,0.1079063 0.520868,0.2514195 0.726874,0.4305439 l -0.245802,0.3204801 c -0.01638,0.02374 -0.03687,0.043163 -0.06145,0.058269 -0.02458,0.015106 -0.05677,0.02266 -0.09657,0.02266 -0.04447,0 -0.09657,-0.020501 -0.15626,-0.061506 -0.05969,-0.041005 -0.138114,-0.086863 -0.235266,-0.1375798 -0.09715,-0.050716 -0.217125,-0.096576 -0.359925,-0.1375798 -0.1428,-0.041005 -0.320714,-0.061506 -0.533744,-0.061506 -0.250486,0 -0.4799,0.040465 -0.688248,0.1213939 -0.208348,0.080929 -0.388016,0.1974668 -0.53901,0.3496146 -0.150995,0.1521479 -0.268042,0.3388229 -0.351147,0.5600308 -0.0831,0.2212079 -0.124657,0.4710072 -0.124657,0.7494054 0,0.2827145 0.04331,0.5341323 0.129924,0.7542611 0.08662,0.2201288 0.206006,0.4068039 0.35817,0.5600308 0.152164,0.1532269 0.331248,0.2697639 0.537255,0.3496146 0.206006,0.079851 0.428398,0.1197754 0.667179,0.1197754 0.145141,0 0.275649,-0.00809 0.391529,-0.024279 0.115879,-0.016186 0.222392,-0.040465 0.319543,-0.072836 0.09715,-0.032372 0.189034,-0.073915 0.275651,-0.1246311 0.08662,-0.050716 0.172062,-0.1116821 0.256337,-0.1829002 0.01873,-0.015107 0.03863,-0.027516 0.0597,-0.037228 0.02107,-0.00971 0.04331,-0.014567 0.06672,-0.014567 z M 74.927103,2.799874 V 7.4484532 H 74.17916 V 5.3540028 H 71.549069 V 7.4484532 H 70.797615 V 2.799874 h 0.751454 V 4.8522411 H 74.17916 V 2.799874 Z m 5.253159,4.0885485 -0.0036,0.5600307 H 77.051543 V 2.799874 h 3.125208 v 0.5600308 h -2.373754 v 1.4729133 h 1.91024 v 0.5406078 h -1.91024 v 1.5149966 z"
     transform="matrix(1.3493473,0,0,2.0768768,-13.763557,-4.3017778)" />
  <g
     inkscape:label="logo"
     style="display:inline"
     id="g107"
     transform="matrix(1.53049,0,0,1.8905976,0.0948934,-2.222422)">
    <g
       id="g2552"
       inkscape:label="Shadow group"
       style="display:none">
      <polygon
         clip-path="url(#clipPath2418)"
         transform="translate(0.1028831,1.175636)"
         style="display:inline;fill:#6eedd8;filter:url(#filter2408)"
         points="10.758253,8.6133428 20.405514,8.608776 15.537636,0.0031376953 "
         id="polygon2274"
         inkscape:label="Shadow Light Aquamarine" />
      <polygon
         clip-path="url(#clipPath2538)"
         transform="translate(0.1028831,1.175636)"
         style="display:inline;fill:#325c80;filter:url(#filter2530)"
         points="14.465952,19.684116 4.8258021,2.4612451 0,11.075757 4.8203765,19.687808 "
         id="polygon2422"
         inkscape:label="Shadow Dark blue" />
      <polygon
         clip-path="url(#clipPath2252)"
         transform="translate(0.1028831,1.175636)"
         style="display:inline;fill:#008571;filter:url(#filter1437)"
         points="25.270444,17.22644 30.142665,8.6119277 25.27587,-0.00012304688 15.537455,0.002953125 "
         id="polygon1216"
         inkscape:label="Shadow Dark Aquamarine" />
    </g>
    <polygon
       transform="translate(0.1028831,1.175636)"
       style="display:inline;fill:#008571"
       points="30.142665,8.6119277 25.27587,-0.00012304688 15.537455,0.002953125 25.270444,17.22644 "
       id="polygon99"
       inkscape:label="Dark Aquamarine" />
    <polygon
       transform="translate(0.1028831,1.175636)"
       style="display:inline;fill:#6eedd8"
       points="20.405514,8.608776 15.537636,0.0031376953 10.758253,8.6133428 "
       id="polygon101"
       inkscape:label="Light Aquamarine"
       clip-path="none"
       mask="none" />
    <polygon
       transform="translate(0.1028831,1.175636)"
       style="display:inline;fill:#325c80"
       points="14.465952,19.684116 4.8258021,2.4612451 0,11.075757 4.8203765,19.687808 "
       id="polygon103"
       inkscape:label="Dark blue" />
    <polygon
       inkscape:label="Medium blue"
       id="polygon233"
       points="19.291272,11.074342 9.6456963,11.077418 14.466073,19.684547 "
       style="display:inline;fill:#5aaafa"
       transform="translate(0.1028831,1.175636)" />
  </g>
</svg>
