<?xml version="1.0" encoding="UTF-8" standalone="no"?>
<svg
   xmlns:dc="http://purl.org/dc/elements/1.1/"
   xmlns:cc="http://creativecommons.org/ns#"
   xmlns:rdf="http://www.w3.org/1999/02/22-rdf-syntax-ns#"
   xmlns:svg="http://www.w3.org/2000/svg"
   xmlns="http://www.w3.org/2000/svg"
   xmlns:xlink="http://www.w3.org/1999/xlink"
   xmlns:sodipodi="http://sodipodi.sourceforge.net/DTD/sodipodi-0.dtd"
   xmlns:inkscape="http://www.inkscape.org/namespaces/inkscape"
   width="107"
   height="21"
   viewBox="0 0 170.56014 33.47442"
   version="1.1"
   id="svg4829"
   sodipodi:docname="apache-openwhisk.svg"
   inkscape:version="0.92.2 5c3e80d, 2017-08-06">
  <metadata
     id="metadata4833">
    <rdf:RDF>
      <cc:Work
         rdf:about="">
        <dc:format>image/svg+xml</dc:format>
        <dc:type
           rdf:resource="http://purl.org/dc/dcmitype/StillImage" />
        <dc:title>logo/apache-openwhisk</dc:title>
      </cc:Work>
    </rdf:RDF>
  </metadata>
  <sodipodi:namedview
     pagecolor="#ffffff"
     bordercolor="#666666"
     borderopacity="1"
     objecttolerance="10"
     gridtolerance="10"
     guidetolerance="10"
     inkscape:pageopacity="0"
     inkscape:pageshadow="2"
     inkscape:window-width="1282"
     inkscape:window-height="844"
     id="namedview4831"
     showgrid="false"
     showguides="true"
     inkscape:zoom="11.483686"
     inkscape:cx="45.927299"
     inkscape:cy="12.442744"
     inkscape:window-x="25"
     inkscape:window-y="92"
     inkscape:window-maximized="0"
     inkscape:current-layer="Menu"
     inkscape:pagecheckerboard="true"
     borderlayer="false"
     viewbox-width="116.3"
     viewbox-height="21"
     scale-x="1">
    <inkscape:grid
       type="xygrid"
       id="grid4835" />
  </sodipodi:namedview>
  <!-- Generator: Sketch 41.2 (35397) - http://www.bohemiancoding.com/sketch -->
  <title
     id="title4812">logo/apache-openwhisk</title>
  <desc
     id="desc4814">Created with Sketch.</desc>
  <defs
     id="defs4816">
    <color-profile
       name="Adobe-RGB--1998-"
       xlink:href="/System/Library/ColorSync/Profiles/AdobeRGB1998.icc"
       id="color-profile4890" />
    <filter
       style="color-interpolation-filters:sRGB"
       inkscape:label="Drop Shadow"
       id="filter4902">
      <feFlood
         flood-opacity="0.498039"
         flood-color="rgb(0,0,0)"
         result="flood"
         id="feFlood4892" />
      <feComposite
         in="flood"
         in2="SourceGraphic"
         operator="in"
         result="composite1"
         id="feComposite4894" />
      <feGaussianBlur
         in="composite1"
         stdDeviation="2"
         result="blur"
         id="feGaussianBlur4896" />
      <feOffset
         dx="6"
         dy="6"
         result="offset"
         id="feOffset4898" />
      <feComposite
         in="SourceGraphic"
         in2="offset"
         operator="over"
         result="fbSourceGraphic"
         id="feComposite4900" />
      <feColorMatrix
         result="fbSourceGraphicAlpha"
         in="fbSourceGraphic"
         values="0 0 0 -1 0 0 0 0 -1 0 0 0 0 -1 0 0 0 0 1 0"
         id="feColorMatrix4988" />
      <feFlood
         id="feFlood4990"
         flood-opacity="0.498039"
         flood-color="rgb(0,0,0)"
         result="flood"
         in="fbSourceGraphic" />
      <feComposite
         in2="fbSourceGraphic"
         id="feComposite4992"
         in="flood"
         operator="in"
         result="composite1" />
      <feGaussianBlur
         id="feGaussianBlur4994"
         in="composite1"
         stdDeviation="1"
         result="blur" />
      <feOffset
         id="feOffset4996"
         dx="6"
         dy="6"
         result="offset" />
      <feComposite
         in2="offset"
         id="feComposite4998"
         in="fbSourceGraphic"
         operator="over"
         result="fbSourceGraphic" />
      <feColorMatrix
         result="fbSourceGraphicAlpha"
         in="fbSourceGraphic"
         values="0 0 0 -1 0 0 0 0 -1 0 0 0 0 -1 0 0 0 0 1 0"
         id="feColorMatrix5000" />
      <feFlood
         id="feFlood5002"
         flood-opacity="0.498039"
         flood-color="rgb(0,0,0)"
         result="flood"
         in="fbSourceGraphic" />
      <feComposite
         in2="fbSourceGraphic"
         id="feComposite5004"
         in="flood"
         operator="in"
         result="composite1" />
      <feGaussianBlur
         id="feGaussianBlur5006"
         in="composite1"
         stdDeviation="1"
         result="blur" />
      <feOffset
         id="feOffset5008"
         dx="6"
         dy="6"
         result="offset" />
      <feComposite
         in2="offset"
         id="feComposite5010"
         in="fbSourceGraphic"
         operator="over"
         result="fbSourceGraphic" />
      <feColorMatrix
         result="fbSourceGraphicAlpha"
         in="fbSourceGraphic"
         values="0 0 0 -1 0 0 0 0 -1 0 0 0 0 -1 0 0 0 0 1 0"
         id="feColorMatrix5012" />
      <feFlood
         id="feFlood5014"
         flood-opacity="0.498039"
         flood-color="rgb(0,0,0)"
         result="flood"
         in="fbSourceGraphic" />
      <feComposite
         in2="fbSourceGraphic"
         id="feComposite5016"
         in="flood"
         operator="in"
         result="composite1" />
      <feGaussianBlur
         id="feGaussianBlur5018"
         in="composite1"
         stdDeviation="1"
         result="blur" />
      <feOffset
         id="feOffset5020"
         dx="6"
         dy="6"
         result="offset" />
      <feComposite
         in2="offset"
         id="feComposite5022"
         in="fbSourceGraphic"
         operator="over"
         result="fbSourceGraphic" />
      <feColorMatrix
         result="fbSourceGraphicAlpha"
         in="fbSourceGraphic"
         values="0 0 0 -1 0 0 0 0 -1 0 0 0 0 -1 0 0 0 0 1 0"
         id="feColorMatrix5024" />
      <feFlood
         id="feFlood5026"
         flood-opacity="0.498039"
         flood-color="rgb(0,0,0)"
         result="flood"
         in="fbSourceGraphic" />
      <feComposite
         in2="fbSourceGraphic"
         id="feComposite5028"
         in="flood"
         operator="in"
         result="composite1" />
      <feGaussianBlur
         id="feGaussianBlur5030"
         in="composite1"
         stdDeviation="1"
         result="blur" />
      <feOffset
         id="feOffset5032"
         dx="6"
         dy="6"
         result="offset" />
      <feComposite
         in2="offset"
         id="feComposite5034"
         in="fbSourceGraphic"
         operator="over"
         result="fbSourceGraphic" />
      <feColorMatrix
         result="fbSourceGraphicAlpha"
         in="fbSourceGraphic"
         values="0 0 0 -1 0 0 0 0 -1 0 0 0 0 -1 0 0 0 0 1 0"
         id="feColorMatrix5036" />
      <feFlood
         id="feFlood5038"
         flood-opacity="0.498039"
         flood-color="rgb(0,0,0)"
         result="flood"
         in="fbSourceGraphic" />
      <feComposite
         in2="fbSourceGraphic"
         id="feComposite5040"
         in="flood"
         operator="in"
         result="composite1" />
      <feGaussianBlur
         id="feGaussianBlur5042"
         in="composite1"
         stdDeviation="1"
         result="blur" />
      <feOffset
         id="feOffset5044"
         dx="6"
         dy="6"
         result="offset" />
      <feComposite
         in2="offset"
         id="feComposite5046"
         in="fbSourceGraphic"
         operator="over"
         result="composite2" />
    </filter>
  </defs>
  <g
     id="Symbols"
     style="fill:none;fill-rule:evenodd;stroke:none;stroke-width:1">
    <g
       id="Menu"
       transform="translate(-268,-33)">
      <g
         id="logo/apache-openwhisk"
         transform="matrix(1.3491753,0,0,1.88912,268,27.019066)">
        <g
           id="Group-23">
          <polygon
             id="Fill-1"
             points="25.270444,17.22644 30.142665,8.6119277 25.27587,-0.00012304688 15.537455,0.002953125 "
             style="fill:#008571"
             transform="translate(0.1028831,1.175636)" />
          <polygon
             id="Fill-2"
             points="15.537636,0.0031376953 10.758253,8.6133428 20.405514,8.608776 "
             style="fill:#6eedd8"
             transform="translate(0.1028831,1.175636)" />
          <polygon
             id="Fill-3"
             points="14.465952,19.684116 4.8258021,2.4612451 0,11.075757 4.8203765,19.687808 "
             style="fill:#325c80"
             transform="translate(0.1028831,1.175636)" />
          <polygon
             id="Fill-4"
             points="9.6456963,11.077418 14.466073,19.684547 19.291272,11.074342 "
             style="fill:#5aaafa"
             transform="translate(0.1028831,1.175636)" />
        </g>
        <path
           d="m 42.349,13.472573 c 0,0.751338 -0.118999,1.440831 -0.357,2.068501 -0.238001,0.627669 -0.573998,1.167831 -1.008,1.620499 -0.434002,0.452669 -0.955497,0.803833 -1.5645,1.0535 -0.609003,0.249668 -1.282163,0.3745 -2.0195,0.3745 -0.737337,0 -1.40933,-0.124832 -2.016,-0.3745 -0.60667,-0.249667 -1.126998,-0.600831 -1.561,-1.0535 -0.434002,-0.452668 -0.769999,-0.99283 -1.008,-1.620499 -0.238001,-0.62767 -0.357,-1.317163 -0.357,-2.068501 0,-0.751337 0.118999,-1.44083 0.357,-2.068499 0.238001,-0.62767 0.573998,-1.168998 1.008,-1.6240005 0.434002,-0.4550023 0.95433,-0.8084987 1.561,-1.0605 0.60667,-0.2520013 1.278663,-0.378 2.016,-0.378 0.737337,0 1.410497,0.1259987 2.0195,0.378 0.609003,0.2520013 1.130498,0.6054977 1.5645,1.0605 0.434002,0.4550025 0.769999,0.9963305 1.008,1.6240005 0.238001,0.627669 0.357,1.317162 0.357,2.068499 z m -1.393,0 c 0,-0.616003 -0.084,-1.168997 -0.252,-1.658999 -0.168001,-0.490003 -0.405999,-0.904165 -0.714,-1.2425 -0.308002,-0.338335 -0.681331,-0.5984996 -1.12,-0.7805005 -0.438669,-0.1820009 -0.928664,-0.273 -1.47,-0.273 -0.536669,0 -1.024331,0.090999 -1.463,0.273 -0.438669,0.1820009 -0.813165,0.4421655 -1.1235,0.7805005 -0.310335,0.338335 -0.549499,0.752497 -0.7175,1.2425 -0.168001,0.490002 -0.252,1.042996 -0.252,1.658999 0,0.616004 0.084,1.167831 0.252,1.6555 0.168001,0.48767 0.407165,0.900665 0.7175,1.239 0.310335,0.338335 0.684831,0.597333 1.1235,0.777 0.438669,0.179668 0.926331,0.2695 1.463,0.2695 0.541336,0 1.031331,-0.08983 1.47,-0.2695 0.438669,-0.179667 0.811998,-0.438665 1.12,-0.777 0.308001,-0.338335 0.545999,-0.75133 0.714,-1.239 0.168001,-0.487669 0.252,-1.039496 0.252,-1.6555 z m 4.151,3.304001 c 0.228668,0.308001 0.478332,0.524999 0.749,0.650999 0.270668,0.126001 0.573998,0.189 0.91,0.189 0.66267,0 1.171332,-0.235664 1.526,-0.707 0.354668,-0.471335 0.532,-1.143328 0.532,-2.015999 0,-0.462003 -0.04083,-0.858665 -0.1225,-1.190001 -0.08167,-0.331334 -0.199499,-0.603165 -0.3535,-0.815499 -0.154001,-0.212335 -0.342999,-0.3675 -0.567,-0.4655 -0.224001,-0.098 -0.478332,-0.147 -0.763,-0.147 -0.406002,0 -0.761832,0.09333 -1.0675,0.28 -0.305668,0.186667 -0.586832,0.450331 -0.8435,0.791 z m -0.063,-4.284 c 0.298668,-0.368669 0.643998,-0.664999 1.036,-0.889 0.392002,-0.224002 0.839997,-0.336001 1.344,-0.336001 0.410669,0 0.781665,0.07817 1.113,0.234501 0.331335,0.156334 0.613666,0.387331 0.847,0.692999 0.233334,0.305669 0.412999,0.684832 0.539,1.137501 0.126001,0.452668 0.189,0.972997 0.189,1.561 0,0.522669 -0.07,1.009164 -0.21,1.459499 -0.140001,0.450336 -0.341832,0.839999 -0.6055,1.169 -0.263668,0.329002 -0.585665,0.588 -0.966,0.777 -0.380335,0.189001 -0.808498,0.2835 -1.2845,0.2835 -0.434002,0 -0.806165,-0.0735 -1.1165,-0.2205 -0.310335,-0.147 -0.584499,-0.351165 -0.8225,-0.6125 v 3.136 h -1.253 v -9.491999 h 0.749 c 0.177334,0 0.287,0.08633 0.329,0.259 z m 11.403,1.673 c 0,-0.289335 -0.04083,-0.554166 -0.1225,-0.7945 -0.08167,-0.240335 -0.200666,-0.448 -0.357,-0.623 -0.156334,-0.175001 -0.346499,-0.310333 -0.5705,-0.406 -0.224001,-0.09567 -0.478332,-0.1435 -0.763,-0.1435 -0.597336,0 -1.069832,0.173831 -1.4175,0.5215 -0.347668,0.347668 -0.5635,0.829496 -0.6475,1.4455 z m 1.008,3.324999 c -0.154001,0.186668 -0.338332,0.348833 -0.553,0.4865 -0.214668,0.137668 -0.444499,0.250833 -0.6895,0.3395 -0.245001,0.08867 -0.498165,0.155167 -0.7595,0.1995 -0.261335,0.04433 -0.520332,0.0665 -0.777,0.0665 -0.490002,0 -0.941498,-0.08283 -1.3545,-0.2485 -0.413002,-0.165667 -0.769999,-0.408331 -1.071,-0.728 -0.301002,-0.319668 -0.535499,-0.715164 -0.7035,-1.1865 -0.168001,-0.471335 -0.252,-1.012663 -0.252,-1.623999 0,-0.49467 0.07583,-0.956665 0.2275,-1.386 0.151667,-0.429336 0.369832,-0.801499 0.6545,-1.1165 0.284668,-0.315002 0.632331,-0.562333 1.043,-0.742001 0.410669,-0.179667 0.872664,-0.269499 1.386,-0.269499 0.424669,0 0.817831,0.07117 1.1795,0.2135 0.361668,0.142334 0.674332,0.347665 0.938,0.616 0.263668,0.268334 0.470166,0.599664 0.6195,0.994 0.149334,0.394335 0.224,0.843497 0.224,1.3475 0,0.196001 -0.021,0.326666 -0.063,0.391999 -0.042,0.06533 -0.121333,0.098 -0.238,0.098 h -4.739 c 0.014,0.448002 0.07583,0.837664 0.1855,1.168999 0.109667,0.331336 0.262499,0.607833 0.4585,0.829501 0.196001,0.221667 0.429332,0.387332 0.7,0.497 0.270668,0.109667 0.573998,0.164499 0.91,0.164499 0.312668,0 0.582165,-0.03617 0.8085,-0.1085 0.226334,-0.07233 0.421166,-0.150499 0.5845,-0.2345 0.163334,-0.084 0.299833,-0.162166 0.4095,-0.234499 0.109667,-0.07233 0.204166,-0.108501 0.2835,-0.108501 0.102667,0 0.182,0.03967 0.238,0.119001 z m 2.814,-5.067999 c 0.154001,-0.172668 0.317332,-0.329 0.49,-0.469001 0.172668,-0.14 0.355832,-0.260166 0.5495,-0.3605 0.193668,-0.100333 0.398999,-0.177333 0.616,-0.231 0.217001,-0.05367 0.451499,-0.0805 0.7035,-0.0805 0.387335,0 0.729165,0.06417 1.0255,0.192499 0.296335,0.128335 0.543666,0.310333 0.742,0.546001 0.198334,0.235667 0.348833,0.519165 0.4515,0.8505 0.102667,0.331335 0.154,0.697664 0.154,1.098999 v 4.515 h -1.253 v -4.515 c 0,-0.536669 -0.122499,-0.953165 -0.3675,-1.249499 -0.245001,-0.296335 -0.617164,-0.4445 -1.1165,-0.4445 -0.368669,0 -0.712832,0.08866 -1.0325,0.266 -0.319668,0.177334 -0.614832,0.417665 -0.8855,0.721 v 5.221999 h -1.253 v -7.090999 h 0.749 c 0.177334,0 0.287,0.08633 0.329,0.259 z M 79.554,8.4535735 76.425,18.484573 h -1.218 l -2.541,-7.650999 c -0.02333,-0.07467 -0.0455,-0.154 -0.0665,-0.238 l -0.0665,-0.266 c -0.02333,0.09333 -0.04667,0.181999 -0.07,0.266 -0.02333,0.084 -0.04667,0.163333 -0.07,0.238 l -2.555,7.650999 H 68.62 L 65.491,8.4535735 h 1.127 c 0.121334,0 0.222833,0.030333 0.3045,0.091 0.08167,0.060667 0.134167,0.1376662 0.1575,0.231 l 2.072,6.9720005 c 0.03267,0.126 0.06417,0.261332 0.0945,0.405999 0.03033,0.144668 0.0595,0.298666 0.0875,0.462 0.03267,-0.163334 0.0665,-0.318499 0.1015,-0.465499 0.035,-0.147001 0.0735,-0.281167 0.1155,-0.4025 L 71.91,8.7755735 c 0.028,-0.079334 0.08283,-0.152833 0.1645,-0.2205 0.08167,-0.067667 0.180833,-0.1015 0.2975,-0.1015 h 0.392 c 0.121334,0 0.219333,0.030333 0.294,0.091 0.07467,0.060667 0.130666,0.1376662 0.168,0.231 l 2.352,6.9720005 c 0.042,0.121333 0.0805,0.251999 0.1155,0.391999 0.035,0.140001 0.06883,0.287 0.1015,0.441 0.02333,-0.154 0.049,-0.300999 0.077,-0.441 0.028,-0.14 0.05833,-0.270666 0.091,-0.391999 l 2.079,-6.9720005 c 0.02333,-0.084 0.07583,-0.1586663 0.1575,-0.224 0.08167,-0.065334 0.180833,-0.098 0.2975,-0.098 z m 2.387,3.8850005 c 0.303335,-0.322002 0.639331,-0.578666 1.008,-0.770001 0.368668,-0.191334 0.793331,-0.286999 1.274,-0.286999 0.387335,0 0.729165,0.06417 1.0255,0.192499 0.296335,0.128335 0.543666,0.310333 0.742,0.546001 0.198334,0.235667 0.348833,0.519165 0.4515,0.8505 0.102667,0.331335 0.154,0.697664 0.154,1.098999 v 4.515 h -1.253 v -4.515 c 0,-0.536669 -0.122499,-0.953165 -0.3675,-1.249499 -0.245001,-0.296335 -0.617164,-0.4445 -1.1165,-0.4445 -0.368669,0 -0.712832,0.08866 -1.0325,0.266 -0.319668,0.177334 -0.614832,0.417665 -0.8855,0.721 v 5.221999 H 80.688 V 8.1735735 h 1.253 z m 7.875,-0.945 v 7.090999 H 88.57 v -7.090999 z m 0.266,-2.2260005 c 0,0.1213339 -0.0245,0.2344995 -0.0735,0.3395 -0.049,0.1050005 -0.114333,0.1983329 -0.196,0.28 -0.08167,0.081667 -0.177333,0.1458331 -0.287,0.1925 -0.109667,0.046665 -0.225166,0.069997 -0.3465,0.069997 -0.121334,0 -0.234499,-0.02333 -0.3395,-0.069997 -0.105001,-0.046667 -0.197166,-0.1108329 -0.2765,-0.1925 -0.07933,-0.081667 -0.142333,-0.1749995 -0.189,-0.28 -0.04667,-0.1050005 -0.07,-0.2181661 -0.07,-0.3395 0,-0.1213339 0.02333,-0.2368328 0.07,-0.3465 0.04667,-0.1096672 0.109666,-0.2053329 0.189,-0.287 0.07933,-0.081667 0.171499,-0.1458331 0.2765,-0.1925 0.105001,-0.046667 0.218166,-0.07 0.3395,-0.07 0.121334,0 0.236833,0.023333 0.3465,0.07 0.109667,0.046667 0.205333,0.1108329 0.287,0.1925 0.08167,0.081667 0.147,0.1773328 0.196,0.287 0.049,0.1096672 0.0735,0.2251661 0.0735,0.3465 z m 5.908,3.3949995 c -0.056,0.102668 -0.142333,0.154001 -0.259,0.154001 -0.07,0 -0.149333,-0.02567 -0.238,-0.077 -0.08867,-0.05133 -0.197166,-0.108499 -0.3255,-0.1715 -0.128334,-0.063 -0.281166,-0.121333 -0.4585,-0.174999 -0.177334,-0.05367 -0.387332,-0.0805 -0.63,-0.0805 -0.210001,0 -0.398999,0.02683 -0.567,0.0805 -0.168001,0.05367 -0.311499,0.127166 -0.4305,0.2205 -0.119001,0.09333 -0.21,0.201832 -0.273,0.3255 -0.063,0.123667 -0.0945,0.257832 -0.0945,0.402499 0,0.182001 0.0525,0.333667 0.1575,0.455001 0.105,0.121333 0.243832,0.226332 0.4165,0.315 0.172667,0.08867 0.368666,0.166832 0.588,0.2345 0.219334,0.06767 0.444499,0.139999 0.6755,0.217 0.231001,0.077 0.456166,0.162166 0.6755,0.2555 0.219334,0.09333 0.415332,0.209999 0.588,0.349999 0.172668,0.140001 0.3115,0.3115 0.4165,0.5145 0.105,0.203002 0.1575,0.446832 0.1575,0.731501 0,0.326668 -0.0583,0.628831 -0.175,0.906499 -0.11667,0.277669 -0.289332,0.517999 -0.518,0.721 -0.228668,0.203001 -0.508665,0.362833 -0.84,0.4795 -0.331335,0.116668 -0.713998,0.175001 -1.148,0.175001 -0.494669,0 -0.942665,-0.0805 -1.344,-0.241501 -0.401335,-0.161 -0.741999,-0.367498 -1.022,-0.6195 l 0.294,-0.476 c 0.03733,-0.06067 0.08167,-0.107333 0.133,-0.139999 0.05133,-0.03267 0.116666,-0.049 0.196,-0.049 0.084,0 0.172666,0.03267 0.266,0.098 0.09333,0.06533 0.206499,0.137667 0.3395,0.217 0.133001,0.07933 0.295166,0.151667 0.4865,0.217 0.191334,0.06533 0.429332,0.098 0.714,0.098 0.242668,0 0.454999,-0.0315 0.637,-0.0945 0.182001,-0.063 0.333666,-0.148166 0.455,-0.2555 0.121334,-0.107333 0.211166,-0.230999 0.2695,-0.371 0.05833,-0.14 0.0875,-0.289332 0.0875,-0.448 0,-0.196 -0.0525,-0.358166 -0.1575,-0.4865 -0.105001,-0.128333 -0.243832,-0.237999 -0.4165,-0.328999 -0.172668,-0.091 -0.369832,-0.170333 -0.5915,-0.238 -0.221668,-0.06767 -0.447999,-0.138833 -0.679,-0.213501 -0.231001,-0.07467 -0.457332,-0.159832 -0.679,-0.255499 -0.221668,-0.09567 -0.418832,-0.215833 -0.5915,-0.360501 -0.172668,-0.144667 -0.3115,-0.323165 -0.4165,-0.535499 -0.105,-0.212335 -0.1575,-0.470166 -0.1575,-0.7735 0,-0.270668 0.056,-0.530833 0.168,-0.7805 0.112001,-0.249668 0.275332,-0.469 0.49,-0.658 0.214668,-0.189001 0.478332,-0.3395 0.791,-0.4515 0.312668,-0.112001 0.669665,-0.168 1.071,-0.168 0.466669,0 0.885498,0.0735 1.2565,0.2205 0.371002,0.147 0.691832,0.348832 0.9625,0.6055 z m 3.185,-4.3889995 v 6.0690005 h 0.322 c 0.0933,0 0.1715,-0.01283 0.2345,-0.0385 0.063,-0.02567 0.1295,-0.07817 0.1995,-0.157501 l 2.24,-2.401 c 0.0653,-0.07933 0.13417,-0.141166 0.2065,-0.185499 0.0723,-0.04433 0.16917,-0.0665 0.2905,-0.0665 h 1.127 l -2.611,2.779 c -0.126,0.158667 -0.26133,0.282332 -0.406,0.371 0.084,0.056 0.15983,0.120166 0.2275,0.1925 0.0677,0.07233 0.13183,0.155166 0.1925,0.2485 l 2.772,3.499999 h -1.113 c -0.10733,0 -0.1995,-0.0175 -0.2765,-0.0525 -0.077,-0.035 -0.1435,-0.09917 -0.1995,-0.192501 l -2.331,-2.905 c -0.07,-0.098 -0.13883,-0.162166 -0.2065,-0.192499 -0.0677,-0.03033 -0.1715,-0.0455 -0.3115,-0.0455 h -0.357 v 3.387999 H 97.922 V 8.1735735 Z"
           id="OpenWhisk"
           style="fill:#ffffff"
           inkscape:connector-curvature="0" />
        <path
           d="M 36.175461,5.6134544 35.427518,3.8103495 C 35.373668,3.6873363 35.319831,3.5319536 35.26599,3.3441967 35.24023,3.4369957 35.2139,3.5233198 35.18698,3.6031705 35.16006,3.6830215 35.13373,3.7542382 35.10797,3.8168238 l -0.744432,1.7966306 z m 1.478329,1.7318871 h -0.575881 c -0.06555,0 -0.11939,-0.015106 -0.161528,-0.04532 -0.04214,-0.030214 -0.07257,-0.069059 -0.09129,-0.1165382 L 36.379126,6.1055046 h -2.22276 l -0.445957,1.0779783 c -0.01638,0.041005 -0.04682,0.078231 -0.09129,0.1116825 -0.04447,0.033451 -0.09832,0.050176 -0.161528,0.050176 h -0.575887 l 2.008561,-4.6485791 h 0.754966 z m 3.03391,-2.256309 c 0.18962,0 0.356413,-0.02266 0.500384,-0.067981 0.143971,-0.04532 0.26453,-0.1095239 0.361682,-0.1926117 0.09715,-0.083088 0.170306,-0.1823601 0.219467,-0.2978199 0.04916,-0.1154597 0.07374,-0.2433268 0.07374,-0.3836049 0,-0.2827144 -0.09539,-0.504998 -0.286185,-0.6668575 C 41.365997,3.3182985 41.076304,3.23737 40.6877,3.23737 h -0.779546 v 1.8516625 z m 0,-2.3922702 c 0.323056,0 0.603972,0.03453 0.842752,0.1035895 0.238781,0.06906 0.436592,0.1667137 0.593439,0.2929641 0.156846,0.1262503 0.273309,0.2789354 0.349391,0.4580598 0.07608,0.1791244 0.114121,0.377669 0.114121,0.5956397 0,0.2179707 -0.04096,0.4181338 -0.122902,0.6004955 -0.08194,0.1823616 -0.202495,0.3393628 -0.361681,0.4710085 -0.159188,0.1316456 -0.357583,0.2336155 -0.595194,0.3059128 -0.237611,0.072297 -0.510918,0.1084452 -0.819928,0.1084452 H 39.908154 V 7.3453415 H 39.160211 V 2.6967623 Z M 46.615061,5.6134544 45.867118,3.8103495 C 45.813268,3.6873363 45.759431,3.5319536 45.70559,3.3441967 45.67983,3.4369957 45.6535,3.5233198 45.62658,3.6031705 45.59966,3.6830215 45.57333,3.7542382 45.54757,3.8168238 l -0.744432,1.7966306 z m 1.478329,1.7318871 h -0.575881 c -0.06555,0 -0.119391,-0.015107 -0.161528,-0.04532 -0.04214,-0.030214 -0.07257,-0.069059 -0.09129,-0.1165382 L 46.818726,6.1055046 h -2.22276 l -0.445957,1.0779783 c -0.01638,0.041005 -0.04682,0.078231 -0.09129,0.1116825 -0.04447,0.033451 -0.09832,0.050176 -0.161527,0.050176 h -0.575887 l 2.008561,-4.6485792 h 0.754966 z m 4.891477,-0.997049 c 0.04214,0 0.07842,0.015106 0.108859,0.04532 l 0.294963,0.2978199 c -0.20601,0.2244454 -0.457078,0.3981719 -0.753213,0.5211851 -0.296135,0.1230132 -0.652547,0.1845188 -1.069243,0.1845188 -0.365195,0 -0.695855,-0.058268 -0.99199,-0.1748073 C 50.278108,7.1057902 50.025284,6.9428542 49.815765,6.733516 49.606247,6.5241778 49.444135,6.273839 49.329427,5.982492 49.214719,5.6911451 49.157365,5.3706683 49.157365,5.0210519 c 0,-0.3496164 0.06027,-0.6700932 0.180841,-0.9614401 0.120561,-0.291347 0.289695,-0.5416858 0.507407,-0.751024 0.217712,-0.2093382 0.478143,-0.3722742 0.781302,-0.488813 0.303158,-0.1165388 0.638501,-0.1748073 1.006037,-0.1748073 0.358171,0 0.676541,0.053952 0.955119,0.1618586 0.278579,0.1079063 0.520868,0.2514195 0.726874,0.4305439 l -0.245802,0.3204801 c -0.01638,0.02374 -0.03687,0.043163 -0.06145,0.058269 -0.02458,0.015106 -0.05677,0.02266 -0.09657,0.02266 -0.04447,0 -0.09657,-0.020501 -0.15626,-0.061506 -0.05969,-0.041005 -0.138114,-0.086863 -0.235266,-0.1375798 -0.09715,-0.050716 -0.217125,-0.096576 -0.359925,-0.1375798 -0.1428,-0.041005 -0.320714,-0.061506 -0.533744,-0.061506 -0.250486,0 -0.4799,0.040465 -0.688248,0.1213939 -0.208348,0.080929 -0.388016,0.1974668 -0.53901,0.3496146 -0.150995,0.1521479 -0.268042,0.3388229 -0.351147,0.5600308 -0.0831,0.2212079 -0.124657,0.4710072 -0.124657,0.7494054 0,0.2827145 0.04331,0.5341323 0.129924,0.7542611 0.08662,0.2201288 0.206006,0.4068039 0.35817,0.5600308 0.152164,0.1532269 0.331248,0.2697639 0.537255,0.3496146 0.206006,0.079851 0.428398,0.1197754 0.667179,0.1197754 0.145141,0 0.275649,-0.00809 0.391529,-0.024279 0.115879,-0.016186 0.222392,-0.040465 0.319543,-0.072836 0.09715,-0.032372 0.189034,-0.073915 0.275651,-0.1246311 0.08662,-0.050716 0.172062,-0.1116821 0.256337,-0.1829002 0.01873,-0.015107 0.03863,-0.027516 0.0597,-0.037228 0.02107,-0.00971 0.04331,-0.014567 0.06672,-0.014567 z M 59.151008,2.6967623 V 7.3453415 H 58.403065 V 5.2508911 H 55.772974 V 7.3453415 H 55.02152 V 2.6967623 h 0.751454 v 2.0523671 h 2.630091 V 2.6967623 Z m 5.253159,4.0885485 -0.0036,0.5600307 H 61.275448 V 2.6967623 h 3.125208 v 0.5600308 h -2.373754 v 1.4729133 h 1.91024 v 0.5406078 h -1.91024 v 1.5149966 z"
           id="APACHE"
           style="fill:#ffffff;stroke-width:0.9632951;filter:url(#filter4902)"
           inkscape:connector-curvature="0" />
      </g>
      <path
         style="fill:#ffffff;stroke-width:0.14282122"
         d=""
         id="path4837"
         inkscape:connector-curvature="0" />
      <path
         style="fill:#ffffff;stroke-width:0.14282122"
         d=""
         id="path4839"
         inkscape:connector-curvature="0" />
    </g>
  </g>
</svg>
