<?xml version="1.0" encoding="UTF-8" standalone="no"?>
<!-- Created with Inkscape (http://www.inkscape.org/) -->

<svg
   xmlns:dc="http://purl.org/dc/elements/1.1/"
   xmlns:cc="http://creativecommons.org/ns#"
   xmlns:rdf="http://www.w3.org/1999/02/22-rdf-syntax-ns#"
   xmlns:svg="http://www.w3.org/2000/svg"
   xmlns="http://www.w3.org/2000/svg"
   xmlns:sodipodi="http://sodipodi.sourceforge.net/DTD/sodipodi-0.dtd"
   xmlns:inkscape="http://www.inkscape.org/namespaces/inkscape"
   width="60.060417mm"
   height="60.325001mm"
   viewBox="0 0 60.060417 60.325001"
   version="1.1"
   id="svg8983"
   inkscape:version="0.92.2 5c3e80d, 2017-08-06"
   sodipodi:docname="drawing-cog-gray.svg">
  <defs
     id="defs8977" />
  <sodipodi:namedview
     id="base"
     pagecolor="#ffffff"
     bordercolor="#666666"
     borderopacity="1.0"
     inkscape:pageopacity="0.0"
     inkscape:pageshadow="2"
     inkscape:zoom="3.2807017"
     inkscape:cx="113.5"
     inkscape:cy="114"
     inkscape:document-units="mm"
     inkscape:current-layer="layer1"
     showgrid="false"
     inkscape:pagecheckerboard="false"
     fit-margin-top="0"
     fit-margin-left="0"
     fit-margin-right="0"
     fit-margin-bottom="0"
     inkscape:window-width="1680"
     inkscape:window-height="961"
     inkscape:window-x="0"
     inkscape:window-y="1"
     inkscape:window-maximized="1" />
  <metadata
     id="metadata8980">
    <rdf:RDF>
      <cc:Work
         rdf:about="">
        <dc:format>image/svg+xml</dc:format>
        <dc:type
           rdf:resource="http://purl.org/dc/dcmitype/StillImage" />
        <dc:title></dc:title>
      </cc:Work>
    </rdf:RDF>
  </metadata>
  <g
     inkscape:label="Layer 1"
     inkscape:groupmode="layer"
     id="layer1"
     transform="translate(-0.96385121,-235.84346)">
    <g
       id="g9217">
      <path
         style="fill:#fefefe;stroke-width:0.26458335"
         d="m 0.96385121,266.00596 v -30.1625 H 30.99406 61.024268 v 30.1625 30.1625 H 30.99406 0.96385121 Z"
         id="path9245"
         inkscape:connector-curvature="0" />
      <path
         style="fill:#f9f9f9;stroke-width:0.26458335"
         d="m 26.746907,295.82767 c -0.153122,-0.17637 -0.688903,-1.90552 -1.190625,-3.84257 l -0.912222,-3.5219 -2.248959,-0.93425 c -1.236927,-0.51383 -2.435845,-0.99108 -2.664263,-1.06054 -0.228418,-0.0695 -1.889162,0.77495 -3.690541,1.87646 -1.80138,1.10152 -3.519492,2.00306 -3.818028,2.00342 -0.658801,8e-4 -5.4270056,-4.9354 -5.4333246,-5.62476 -0.00235,-0.25559 0.8961588,-1.96778 1.9966707,-3.80486 l 2.0009299,-3.34014 -0.9521078,-2.28056 c -0.5236594,-1.2543 -1.049764,-2.45914 -1.1691215,-2.67743 -0.1310881,-0.23973 -1.5266787,-0.71115 -3.5247231,-1.19062 -1.8192404,-0.43656 -3.503242,-0.95716 -3.7422257,-1.15688 -0.3655768,-0.30551 -0.43451569,-0.96016 -0.43451569,-4.12618 0,-3.25454 0.0625695,-3.8173 0.46302079,-4.1645 0.2546615,-0.22079 1.8322396,-0.73232 3.5057292,-1.13672 3.2960019,-0.79649 3.9687501,-1.05096 3.9687501,-1.50122 0,-0.16111 0.4262016,-1.28522 0.9471146,-2.49804 l 0.9471151,-2.20511 -2.0054484,-3.32762 c -1.1029963,-1.83019 -2.005448,-3.59151 -2.005448,-3.91403 0,-0.77517 4.6810754,-5.47074 5.4538554,-5.47074 0.302017,0 2.052327,0.9052 3.889579,2.01157 l 3.340457,2.01157 2.190867,-0.91995 c 1.204977,-0.50596 2.382903,-0.98445 2.617615,-1.0633 0.297864,-0.10007 0.690617,-1.20885 1.300445,-3.67132 0.480533,-1.94037 1.001746,-3.73631 1.158251,-3.99097 0.249908,-0.40664 0.75227,-0.46302 4.126014,-0.46302 3.373744,0 3.876106,0.0564 4.126016,0.46302 0.156503,0.25466 0.677717,2.0506 1.15825,3.99097 0.609828,2.46247 1.002581,3.57125 1.300443,3.67132 0.234712,0.0788 1.415886,0.55873 2.624834,1.0664 l 2.198081,0.92304 3.523382,-2.14696 c 1.937862,-1.18082 3.629864,-2.14696 3.760007,-2.14696 0.130144,0 1.395249,1.16299 2.811347,2.58442 1.677908,1.68423 2.574724,2.78521 2.574724,3.16087 0,0.31705 -0.902452,2.07388 -2.00545,3.90407 l -2.005446,3.32762 0.947113,2.20511 c 0.520914,1.21282 0.947116,2.33409 0.947116,2.49173 0,0.45622 0.404535,0.60967 3.992292,1.51441 1.863474,0.46992 3.573008,1.03928 3.798962,1.26523 0.592259,0.59226 0.603303,7.4377 0.01297,8.02805 -0.218832,0.21883 -1.964439,0.7797 -3.879128,1.24637 -2.067631,0.50395 -3.565864,1.0062 -3.689617,1.23687 -0.114599,0.21361 -0.634527,1.4131 -1.155393,2.66554 l -0.947031,2.27717 1.991812,3.34474 c 1.095489,1.83961 1.991805,3.57937 1.991805,3.86613 0,0.67458 -4.803643,5.56613 -5.461749,5.5617 -0.270256,-0.002 -1.974223,-0.90231 -3.78659,-2.00109 -1.812369,-1.09879 -3.479244,-1.94171 -3.704167,-1.87316 -0.224925,0.0685 -1.420984,0.54505 -2.657911,1.05888 l -2.248959,0.93425 -0.910817,3.5219 c -0.500949,1.93705 -1.057992,3.67073 -1.237872,3.85263 -0.452305,0.45739 -7.785867,0.44837 -8.18388,-0.0101 z"
         id="path9243"
         inkscape:connector-curvature="0" />
      <path
         style="fill:#f3f3f3;stroke-width:0.26458335"
         d="m 26.800478,295.57315 c -0.203127,-0.32742 -0.628588,-1.66688 -0.945469,-2.97656 -1.02975,-4.25602 -1.054864,-4.32337 -1.679872,-4.50499 -0.324176,-0.0942 -1.498304,-0.58991 -2.609173,-1.10158 l -2.019762,-0.9303 -3.271905,1.99497 c -1.799547,1.09724 -3.482454,2.07559 -3.739794,2.17413 -0.35273,0.13506 -1.084498,-0.42553 -2.9731364,-2.27765 -1.3778855,-1.35124 -2.5742665,-2.67427 -2.6586244,-2.94006 -0.1009423,-0.31804 0.5310632,-1.61893 1.8486572,-3.80521 1.1011194,-1.82707 2.0020356,-3.55147 2.0020356,-3.83198 0,-0.28051 -0.345973,-1.25642 -0.7688293,-2.16868 -0.4228558,-0.91226 -0.8912087,-1.97435 -1.0407841,-2.36019 -0.24834,-0.64062 -0.5745432,-0.77347 -3.7565666,-1.52994 -1.916536,-0.45561 -3.6508393,-0.99462 -3.8540074,-1.19779 -0.53129288,-0.53129 -0.53148762,-7.42665 -2.247e-4,-7.95791 0.2030444,-0.20305 1.9431875,-0.76348 3.8669848,-1.24541 l 3.4978131,-0.87624 0.5999702,-1.59596 c 0.3299839,-0.87778 0.844965,-2.07619 1.144403,-2.66313 l 0.544432,-1.06718 -2.1088462,-3.51225 c -1.2993455,-2.16404 -2.0537268,-3.68592 -1.9652533,-3.96468 0.1718336,-0.5414 4.9794125,-5.30568 5.3538985,-5.30568 0.143744,0 1.771507,0.90601 3.617251,2.01336 2.339955,1.40384 3.533172,1.97399 3.941474,1.88334 0.462006,-0.10258 4.519574,-1.71478 4.909693,-1.95078 0.04993,-0.0302 0.505088,-1.69904 1.011461,-3.70851 0.506372,-2.00948 1.045646,-3.80417 1.198384,-3.98821 0.423762,-0.51061 7.444039,-0.47007 7.871881,0.0455 0.173488,0.20904 0.714031,2.005 1.201211,3.99103 0.48718,1.98604 0.925362,3.63375 0.973738,3.6616 0.418793,0.24106 4.454036,1.83665 4.918343,1.94478 0.429873,0.10011 1.524505,-0.42532 3.909335,-1.87651 1.821757,-1.10855 3.465563,-2.01555 3.652901,-2.01555 0.408593,0 5.466755,5.0936 5.466755,5.50505 0,0.15813 -0.905386,1.78981 -2.011966,3.62595 -1.418326,2.35341 -1.971151,3.50907 -1.873629,3.91674 0.07609,0.31806 0.560319,1.59008 1.076074,2.82669 l 0.937734,2.2484 3.647871,0.90791 c 2.00633,0.49935 3.796702,1.05665 3.978603,1.23844 0.23227,0.23212 0.330729,1.40512 0.330729,3.94019 0,2.53727 -0.09826,3.70664 -0.330729,3.93607 -0.181901,0.17952 -1.977221,0.72178 -3.989602,1.20504 -3.038983,0.72978 -3.695681,0.97386 -3.876146,1.44064 -0.119501,0.3091 -0.586367,1.42625 -1.037481,2.48256 -0.451115,1.05631 -0.820209,2.09174 -0.820209,2.30097 0,0.20923 0.900917,1.8753 2.002036,3.70237 1.317594,2.18628 1.949599,3.48717 1.848657,3.80521 -0.08436,0.26579 -1.280739,1.58882 -2.658626,2.94006 -1.888638,1.85212 -2.620406,2.41271 -2.973136,2.27765 -0.257339,-0.0985 -1.940245,-1.07689 -3.739793,-2.17413 l -3.271906,-1.99497 -2.01976,0.9303 c -1.110869,0.51167 -2.284997,1.00738 -2.609176,1.10158 -0.625006,0.18162 -0.65012,0.24897 -1.679871,4.50499 -0.907965,3.75267 -0.654534,3.57187 -5.006758,3.57187 -3.54289,0 -3.706881,-0.024 -4.06129,-0.59531 z"
         id="path9241"
         inkscape:connector-curvature="0" />
      <path
         style="fill:#eaeaea;stroke-width:0.26458335"
         d="m 27.02531,295.82767 c -0.145521,-0.17637 -0.661191,-1.86791 -1.145934,-3.75899 -0.880671,-3.43568 -1.163128,-4.1023 -1.738198,-4.1023 -0.168188,0 -1.175343,-0.41672 -2.238122,-0.92604 -1.062778,-0.50933 -2.10751,-0.92605 -2.321626,-0.92605 -0.214117,0 -1.853497,0.89297 -3.643069,1.98438 -1.789571,1.09141 -3.422737,1.98437 -3.629259,1.98437 -0.529497,0 -5.2598341,-4.81021 -5.2598341,-5.34865 0,-0.24415 0.8929688,-1.92561 1.984375,-3.73657 1.0914061,-1.81096 1.9843751,-3.42806 1.9843751,-3.59355 0,-0.1655 -0.340826,-0.98211 -0.757391,-1.81471 -0.4165645,-0.83259 -0.9009417,-1.95694 -1.0763933,-2.49854 -0.3552851,-1.09674 -0.3110481,-1.07736 -4.7653504,-2.0879 -1.3909447,-0.31556 -2.7373498,-0.75403 -2.9920113,-0.97437 -0.3986501,-0.34494 -0.46302079,-0.90105 -0.46302079,-4.00015 0,-3.14332 0.0586824,-3.63558 0.46302079,-3.88407 0.2546615,-0.15651 2.0366559,-0.67425 3.9599876,-1.15055 2.9514197,-0.73089 3.5230311,-0.9544 3.6640397,-1.43273 0.09189,-0.31171 0.5826567,-1.54876 1.0905927,-2.74901 l 0.923519,-2.18225 -1.9015976,-3.18033 c -1.0458786,-1.74918 -1.9661209,-3.42706 -2.0449826,-3.72863 -0.1119942,-0.42827 0.3993938,-1.09335 2.3358964,-3.03794 1.3636048,-1.3693 2.6602268,-2.4894 2.8813818,-2.48913 0.221155,2.7e-4 1.890382,0.89853 3.709392,1.99612 1.819011,1.09758 3.485886,1.94176 3.704167,1.87595 0.89592,-0.27011 4.830538,-1.98304 5.03502,-2.19199 0.121306,-0.12395 0.589044,-1.71365 1.039418,-3.53266 1.214154,-4.90384 0.759484,-4.49792 5.038062,-4.49792 4.278577,0 3.823907,-0.40592 5.038064,4.49792 0.450373,1.81901 0.917268,3.40787 1.037547,3.53079 0.197872,0.20223 4.074195,1.88315 5.036889,2.18419 0.218281,0.0682 1.999126,-0.83546 3.957434,-2.00825 l 3.560556,-2.13235 2.591006,2.58128 c 1.425052,1.41971 2.591004,2.77439 2.591004,3.0104 0,0.23601 -0.903539,1.93515 -2.007862,3.77585 l -2.007862,3.34674 0.92351,2.18224 c 0.507931,1.20023 0.998384,2.43629 1.089895,2.74681 0.139745,0.47418 0.705258,0.69778 3.531748,1.39643 1.850949,0.45751 3.692785,0.96204 4.092967,1.12116 l 0.727604,0.28932 v 3.63967 c 0,2.79642 -0.08579,3.71088 -0.370305,3.947 -0.203666,0.16903 -1.60265,0.60764 -3.108855,0.97469 -4.983667,1.21449 -4.651647,1.07117 -5.007117,2.16134 -0.177017,0.54289 -0.661739,1.69277 -1.077162,2.5553 -0.415419,0.86254 -0.755311,1.67916 -0.755311,1.81471 0,0.13556 0.892969,1.72816 1.984375,3.53912 1.091406,1.81096 1.984375,3.49701 1.984375,3.74677 0,0.53747 -4.739447,5.33845 -5.270032,5.33845 -0.200911,0 -1.82949,-0.89296 -3.61906,-1.98437 -1.789573,-1.09141 -3.426296,-1.98438 -3.637167,-1.98438 -0.314203,0 -3.305982,1.27057 -4.936241,2.09635 -0.240183,0.12166 -0.756478,1.60169 -1.307692,3.74869 -0.500949,1.95122 -1.057992,3.6965 -1.237872,3.8784 -0.451035,0.4561 -7.26366,0.44713 -7.640894,-0.0101 z"
         id="path9239"
         inkscape:connector-curvature="0" />
      <path
         style="fill:#e2e2e2;stroke-width:0.26458335"
         d="m 26.960474,295.57315 c -0.1576,-0.32742 -0.591405,-1.85951 -0.964011,-3.40463 -0.827741,-3.43249 -1.109814,-4.20214 -1.540053,-4.20214 -0.183171,0 -1.364517,-0.49019 -2.625213,-1.0893 l -2.292174,-1.0893 -3.610094,2.19781 -3.610094,2.1978 -2.6347835,-2.6249 c -1.4491309,-1.44369 -2.6347836,-2.72216 -2.6347836,-2.84103 0,-0.11888 0.8929688,-1.68912 1.984375,-3.48941 1.0914061,-1.80029 1.9843751,-3.50861 1.9843751,-3.79625 0,-0.42577 -1.2013174,-3.33139 -2.0940504,-5.06487 -0.1173531,-0.22787 -1.6496157,-0.74936 -3.7416836,-1.27345 -1.9486195,-0.48815 -3.6949294,-1.01368 -3.8806887,-1.16784 -0.2439842,-0.20249 -0.33774409,-1.2907 -0.33774409,-3.91998 v -3.63967 l 0.72760419,-0.28771 c 0.4001823,-0.15825 1.9777604,-0.59193 3.5057292,-0.96373 3.5758609,-0.87013 3.8635964,-1.00361 4.0876114,-1.89615 0.1027673,-0.40946 0.5845426,-1.60522 1.070612,-2.65726 l 0.883762,-1.91278 -2.0949514,-3.46231 c -1.1522228,-1.90427 -2.0949507,-3.548 -2.0949507,-3.65273 0,-0.10473 1.1829219,-1.3689 2.6287153,-2.80926 l 2.6287158,-2.61886 1.803055,1.06272 c 0.991681,0.5845 2.517431,1.50436 3.390556,2.04414 1.843819,1.13987 1.997736,1.13409 5.147918,-0.19332 2.53184,-1.06686 2.37775,-0.83884 3.335476,-4.93575 0.357986,-1.53138 0.783007,-3.11174 0.94449,-3.51193 l 0.293606,-0.7276 h 3.639968 3.639968 l 0.293606,0.7276 c 0.161483,0.40019 0.593934,2.0373 0.961001,3.63803 0.756393,3.29852 1.047459,4.10104 1.4874,4.10104 0.169349,0 1.322107,0.4356 2.561685,0.96801 2.671715,1.14753 2.478948,1.18704 6.488809,-1.33008 1.537332,-0.96503 2.92496,-1.7546 3.08362,-1.7546 0.269227,0 5.071722,4.84623 5.241428,5.28916 0.04252,0.11098 -0.833099,1.71241 -1.94582,3.55874 -1.426726,2.36735 -1.982348,3.52744 -1.884791,3.93526 0.164447,0.68743 1.909294,4.9079 2.113455,5.11206 0.0781,0.0781 1.312449,0.43445 2.743004,0.7919 1.430557,0.35745 3.226088,0.82677 3.990073,1.04295 l 1.389062,0.39305 v 3.68116 c 0,2.65437 -0.09225,3.74086 -0.330729,3.89521 -0.181901,0.11773 -1.987214,0.63487 -4.011806,1.1492 -2.155502,0.5476 -3.7685,1.09586 -3.892018,1.32292 -0.552876,1.01634 -2.084197,4.82545 -2.084197,5.18437 0,0.22294 0.892969,1.87832 1.984375,3.67861 1.091406,1.80029 1.984375,3.37053 1.984375,3.48941 0,0.11887 -1.177621,1.38934 -2.616935,2.82325 l -2.616936,2.60712 -2.21171,-1.31326 c -1.216441,-0.72229 -2.838564,-1.70827 -3.604718,-2.19106 l -1.393007,-0.8778 -2.315398,1.10033 c -1.273472,0.60519 -2.465266,1.10034 -2.648437,1.10034 -0.435372,0 -0.729869,0.81481 -1.521304,4.20911 -1.003401,4.30339 -0.623708,3.99297 -4.884055,3.99297 -3.487336,0 -3.624848,-0.021 -3.901294,-0.59531 z"
         id="path9237"
         inkscape:connector-curvature="0" />
      <path
         style="fill:#dbdbdb;stroke-width:0.26458335"
         d="m 26.925667,295.30857 c -0.150135,-0.47295 -0.523348,-1.87193 -0.829362,-3.10886 -0.971913,-3.92853 -1.06987,-4.23333 -1.360494,-4.23333 -0.156601,0 -1.357671,-0.47625 -2.669046,-1.05834 -1.311374,-0.58208 -2.4804,-1.05833 -2.597834,-1.05833 -0.117435,0 -1.673846,0.89297 -3.458693,1.98438 -1.784847,1.0914 -3.427547,1.98437 -3.650443,1.98437 -0.574972,0 -5.0459438,-4.51995 -5.0459438,-5.10122 0,-0.26513 0.8334375,-1.8557 1.8520834,-3.53462 1.0186454,-1.6789 1.8520834,-3.33393 1.8520834,-3.67784 0,-0.3439 -0.400244,-1.55377 -0.889431,-2.68861 -0.4891871,-1.13483 -0.9567424,-2.25877 -1.039012,-2.49765 -0.106218,-0.3084 -1.1714789,-0.68093 -3.6746315,-1.28504 -1.9387779,-0.46791 -3.73341,-0.96127 -3.9880715,-1.09636 -0.407049,-0.21592 -0.46302079,-0.69103 -0.46302079,-3.93027 v -3.68466 L 1.9560387,262.0625 c 0.5457031,-0.14283 2.0042188,-0.51006 3.2411459,-0.81608 3.6374512,-0.8999 3.8995186,-1.01402 4.0922757,-1.78202 0.096163,-0.38315 0.5996432,-1.62594 1.1188447,-2.76177 l 0.944002,-2.06515 -2.0192277,-3.31832 c -1.1105753,-1.82508 -2.0192281,-3.52614 -2.0192281,-3.78013 0,-0.254 1.060028,-1.51693 2.355618,-2.80651 2.7620928,-2.7493 2.5134448,-2.7273 5.9910158,-0.53005 3.793041,2.39658 3.547225,2.35412 6.473051,1.11805 1.380788,-0.58334 2.64341,-1.19814 2.805827,-1.36623 0.162417,-0.16809 0.614808,-1.61531 1.005315,-3.21604 0.390507,-1.60073 0.827757,-3.3569 0.971666,-3.9026 l 0.261654,-0.99219 h 3.68377 3.68377 l 0.261654,0.99219 c 0.14391,0.5457 0.58116,2.30187 0.971667,3.9026 0.390506,1.60073 0.842899,3.04507 1.005313,3.20963 0.441481,0.44733 4.98256,2.32264 5.525294,2.28176 0.258913,-0.0195 1.966352,-0.95302 3.794305,-2.07447 l 3.323553,-2.03901 2.491182,2.48082 c 1.370147,1.36445 2.491179,2.68614 2.491179,2.93708 0,0.25094 -0.842357,1.85103 -1.871903,3.55576 -1.029544,1.70473 -1.886133,3.28843 -1.903527,3.51935 -0.01738,0.23091 0.408242,1.44396 0.945859,2.69567 0.537618,1.2517 0.977487,2.4085 0.977487,2.57066 0,0.31632 1.140214,0.67889 5.622396,1.78788 l 2.844271,0.70372 v 3.67982 c 0,3.25819 -0.05305,3.70087 -0.463021,3.86359 -0.254661,0.10108 -2.107713,0.60336 -4.11789,1.11618 l -3.65487,0.9324 -0.94411,2.24895 c -1.454909,3.46574 -1.462611,3.38842 0.691235,6.93834 1.03074,1.69885 1.874073,3.30089 1.874073,3.56011 0,0.57734 -4.461018,5.11403 -5.021567,5.10674 -0.221316,-0.003 -1.593017,-0.73184 -3.048225,-1.61991 -1.455208,-0.88806 -2.958528,-1.80217 -3.340711,-2.03133 -0.663784,-0.39803 -0.811779,-0.36571 -3.307292,0.72224 -1.436827,0.62641 -2.745346,1.27498 -2.907818,1.44126 -0.162473,0.16629 -0.553842,1.37391 -0.869712,2.6836 -0.31587,1.30968 -0.751811,3.00632 -0.968759,3.77031 l -0.394449,1.38906 h -3.676255 -3.676258 z"
         id="path9235"
         inkscape:connector-curvature="0" />
      <path
         style="fill:#d4d4d4;stroke-width:0.26458335"
         d="m 27.071784,295.70544 c -0.06681,-0.25466 -0.515964,-2.05427 -0.998115,-3.99914 -0.78222,-3.15525 -0.949165,-3.56539 -1.55,-3.80789 -0.370347,-0.14948 -1.54892,-0.67159 -2.61905,-1.16024 -1.07013,-0.48865 -2.141692,-0.88827 -2.38125,-0.88803 -0.239558,2.3e-4 -1.864309,0.89197 -3.610559,1.98164 -1.74625,1.08967 -3.353594,1.98252 -3.571875,1.9841 -0.489488,0.004 -5.0270838,-4.61271 -5.0270838,-5.11424 0,-0.19936 0.8921102,-1.83831 1.9824674,-3.6421 1.0903574,-1.80379 1.9833254,-3.43184 1.9843754,-3.6179 0.0011,-0.18605 -0.338918,-1.01948 -0.755483,-1.85208 -0.416565,-0.83259 -0.9023505,-1.9612 -1.0795229,-2.50803 -0.1771727,-0.54682 -0.5209564,-1.09746 -0.7639638,-1.22365 -0.2430073,-0.12619 -1.8110501,-0.54592 -3.4845397,-0.93275 -4.67283359,-1.08012 -4.23333339,-0.57372 -4.23333339,-4.87769 v -3.67404 l 4.01911159,-1.02799 4.0191116,-1.02799 0.8657749,-2.22582 c 0.4761757,-1.22421 0.9892947,-2.34935 1.1402627,-2.50032 0.52529,-0.52529 0.262409,-1.2041 -1.7367153,-4.48457 -1.4056291,-2.30657 -1.9620129,-3.45528 -1.8478325,-3.81503 0.2191871,-0.6906 4.4850728,-4.83364 4.9769608,-4.83364 0.213856,0 1.448794,0.6666 2.744307,1.48132 1.295513,0.81472 2.816396,1.71747 3.379741,2.00612 l 1.024264,0.5248 1.886153,-0.80322 c 1.037384,-0.44177 2.311339,-0.97236 2.83101,-1.17909 l 0.944857,-0.37587 1.000016,-4.13432 1.000016,-4.13432 h 3.654041 3.654041 l 0.991598,4.12588 c 0.821962,3.42006 1.086241,4.1641 1.544836,4.34923 0.304281,0.12284 1.586243,0.65434 2.848805,1.18113 l 2.29557,0.95778 1.011722,-0.5184 c 0.556448,-0.28512 2.07169,-1.185 3.367201,-1.99972 1.295514,-0.81472 2.553888,-1.48132 2.796392,-1.48132 0.524526,0 5.034812,4.53275 5.03409,5.05916 -2.65e-4,0.20064 -0.898528,1.85308 -1.996115,3.67209 -1.097589,1.81901 -1.938321,3.48589 -1.868299,3.70417 0.07002,0.21828 0.591656,1.52797 1.159184,2.91042 l 1.031867,2.51354 4.151096,1.05624 4.151098,1.05625 -0.07302,3.70625 -0.07302,3.70626 -3.861962,0.95145 c -2.124078,0.5233 -3.990626,1.03098 -4.147884,1.12817 -0.157257,0.0972 -0.430035,0.62153 -0.606171,1.16521 -0.176133,0.54368 -0.661069,1.66972 -1.077634,2.50231 -0.416566,0.8326 -0.756534,1.66603 -0.755484,1.85208 0.0011,0.18606 0.89402,1.81411 1.984375,3.6179 1.090356,1.80379 1.982468,3.42338 1.982468,3.59909 0,0.41325 -4.564047,5.15983 -4.961398,5.15983 -0.329343,0 -2.734408,-1.36926 -5.199936,-2.96044 -0.859306,-0.55457 -1.769681,-1.00831 -2.023057,-1.00831 -0.253378,0 -1.336246,0.39981 -2.406377,0.88846 -1.070129,0.48865 -2.252396,1.01244 -2.627255,1.16398 -0.604194,0.24424 -0.763476,0.61644 -1.403109,3.27872 -0.396846,1.65177 -0.838872,3.4497 -0.982276,3.9954 l -0.260739,0.99219 h -3.676139 c -3.278418,0 -3.689281,-0.0501 -3.797615,-0.46302 z"
         id="path9233"
         inkscape:connector-curvature="0" />
      <path
         style="fill:#cbcbcb;stroke-width:0.26458335"
         d="m 26.38443,292.66273 c -1.026591,-4.21086 -1.193893,-4.66284 -1.80016,-4.86322 -0.258157,-0.0853 -1.509399,-0.63736 -2.780536,-1.22676 l -2.31116,-1.07163 -1.393007,0.87676 c -0.766154,0.48222 -2.383092,1.47325 -3.593195,2.20229 l -2.200188,1.32552 -2.4961665,-2.48578 c -1.3728915,-1.36718 -2.4961663,-2.58317 -2.4961663,-2.70219 0,-0.11903 0.8929688,-1.68938 1.9843751,-3.48967 1.0914067,-1.80029 1.9843747,-3.52436 1.9843747,-3.83126 0,-0.3069 -0.340825,-1.23922 -0.75739,-2.07181 -0.416565,-0.8326 -0.9020664,-1.96035 -1.0788919,-2.50612 -0.2346418,-0.72422 -0.512522,-1.04115 -1.0285468,-1.17309 -0.3888753,-0.0994 -2.1953273,-0.54647 -4.0143377,-0.99344 l -3.3072917,-0.81265 -0.073057,-3.71102 -0.073057,-3.71102 3.6449321,-0.88208 c 4.0957463,-0.99118 4.691738,-1.27056 4.9559165,-2.32313 0.1019434,-0.40618 0.5830445,-1.59925 1.0691135,-2.65129 l 0.883762,-1.91278 -2.0949509,-3.46231 c -1.1522229,-1.90427 -2.0949508,-3.54811 -2.0949508,-3.65299 0,-0.10487 1.1234635,-1.30947 2.4965854,-2.67688 l 2.4965853,-2.48621 1.802894,1.06263 c 0.991591,0.58444 2.517269,1.50426 3.390394,2.04404 1.842746,1.13921 1.991146,1.13373 5.159375,-0.19047 1.459537,-0.61003 2.360245,-1.15181 2.566001,-1.54346 0.174374,-0.33192 0.700865,-2.24504 1.16998,-4.25137 l 0.852937,-3.64788 h 3.613165 3.613166 l 0.869079,3.77031 c 0.858856,3.72596 1.334707,4.96094 1.911504,4.96094 0.162872,0 1.310333,0.43561 2.549911,0.96802 2.671715,1.14752 2.478948,1.18704 6.488809,-1.33008 1.537332,-0.96503 2.905651,-1.75461 3.040708,-1.75461 0.253688,0 4.881028,4.62129 5.021389,5.01483 0.04342,0.12173 -0.833813,1.72131 -1.949405,3.55463 -1.468723,2.41365 -1.98919,3.49804 -1.886423,3.93037 0.286075,1.20347 2.025123,5.09331 2.399464,5.36703 0.212082,0.15508 2.124331,0.69309 4.249441,1.19558 l 3.863835,0.91361 -0.07064,3.67099 -0.07063,3.67099 -3.175,0.7702 c -5.414593,1.3135 -5.084027,1.17518 -5.44357,2.27784 -0.177017,0.54288 -0.661739,1.69277 -1.077161,2.5553 -0.415419,0.86253 -0.755311,1.79485 -0.755311,2.07181 0,0.27697 0.892969,1.97654 1.984375,3.77683 1.091406,1.80029 1.984375,3.37064 1.984375,3.48967 0,0.11902 -1.118161,1.32991 -2.484803,2.69087 l -2.4848,2.47447 -2.211554,-1.31317 c -1.216353,-0.72224 -2.838405,-1.70817 -3.604559,-2.19096 l -1.393007,-0.87781 -2.31116,1.07163 c -1.271137,0.5894 -2.521304,1.14103 -2.778151,1.22585 -0.598511,0.19765 -0.823233,0.81392 -1.809324,4.96187 l -0.810181,3.40799 H 30.880627 27.23911 Z"
         id="path9231"
         inkscape:connector-curvature="0" />
      <path
         style="fill:#c3c3c3;stroke-width:0.26458335"
         d="m 26.40985,292.53044 c -1.089149,-4.52228 -1.170323,-4.72144 -2.010391,-4.93228 -0.376016,-0.0944 -1.556553,-0.58591 -2.623415,-1.09231 -1.066863,-0.5064 -2.089246,-0.92072 -2.271964,-0.92072 -0.182718,0 -1.596682,0.79374 -3.142144,1.76388 -4.338891,2.72366 -3.891278,2.71774 -6.5362176,0.0865 -1.2360061,-1.22958 -2.2472838,-2.45267 -2.2472838,-2.71798 0,-0.2653 0.8334375,-1.85602 1.8520833,-3.53494 1.0186461,-1.6789 1.8520831,-3.33393 1.8520831,-3.67784 0,-0.52801 -1.3814282,-4.10896 -2.0883359,-5.4134 -0.1320154,-0.24361 -1.6350882,-0.73915 -3.8920161,-1.28315 -2.0223167,-0.48745 -3.8257676,-0.9302 -4.0076686,-0.98388 -0.2442319,-0.0721 -0.33072919,-1.06856 -0.33072919,-3.81009 0,-3.49159 0.0303904,-3.71247 0.51080429,-3.71247 0.6616395,0 6.8690263,-1.55362 7.4502881,-1.86471 0.244588,-0.1309 0.5255334,-0.56004 0.6243238,-0.95365 0.09879,-0.39361 0.6044196,-1.64497 1.1236206,-2.7808 l 0.944003,-2.06515 -2.0192284,-3.31832 c -1.1105753,-1.82508 -2.019228,-3.52629 -2.019228,-3.78046 0,-0.25417 1.0006089,-1.45754 2.2235755,-2.67416 1.8507139,-1.8411 2.3280509,-2.1858 2.8466179,-2.05565 0.342674,0.086 1.872143,0.94078 3.398821,1.8995 3.242411,2.03615 3.39932,2.04939 6.868246,0.57923 2.589514,-1.09745 2.401263,-0.7805 3.6057,-6.07072 l 0.768038,-3.37344 3.572105,3.8e-4 3.572105,3.8e-4 0.891604,3.90222 c 0.490378,2.14623 0.975873,4.05911 1.07887,4.25086 0.242631,0.4517 4.367916,2.18996 5.570151,2.34708 0.74526,0.0974 1.235954,-0.0788 2.513542,-0.90259 0.873125,-0.56299 2.343285,-1.48034 3.267019,-2.03855 l 1.679522,-1.01495 2.355374,2.34447 c 1.295458,1.28945 2.355377,2.55505 2.355377,2.81244 0,0.25739 -0.845162,1.8486 -1.878137,3.53603 -1.553067,2.53702 -1.855581,3.21259 -1.747817,3.90316 0.184227,1.18054 1.933075,5.25487 2.351276,5.47781 0.604665,0.32234 6.783514,1.83959 7.491563,1.83959 h 0.676809 l -0.07341,3.77032 c -0.04486,2.30403 -0.176308,3.76321 -0.337995,3.75206 -0.802478,-0.0553 -7.923244,1.94665 -8.103502,2.27829 -0.698407,1.28492 -2.082956,4.87586 -2.082956,5.40232 0,0.34391 0.833437,1.99894 1.852083,3.67784 1.018646,1.67892 1.852084,3.26964 1.852084,3.53494 0,0.54902 -4.191374,4.83632 -4.728107,4.83632 -0.331444,0 -4.258355,-2.24583 -5.987519,-3.4243 -1.050684,-0.71607 -1.218983,-0.69789 -3.481982,0.37627 -1.066864,0.5064 -2.2474,0.99794 -2.623418,1.09231 -0.831313,0.20865 -0.896522,0.36957 -1.99857,4.93228 l -0.878708,3.63802 h -3.580381 -3.580384 z"
         id="path9229"
         inkscape:connector-curvature="0" />
      <path
         style="fill:#bcbcbc;stroke-width:0.26458335"
         d="m 27.32097,295.83773 c -0.04653,-0.1819 -0.479039,-1.96946 -0.961124,-3.97236 -0.482085,-2.0029 -1.005822,-3.74252 -1.163861,-3.86582 -0.416883,-0.32526 -4.678837,-2.17752 -5.383201,-2.33956 -0.423974,-0.0975 -1.424702,0.36251 -3.439583,1.58122 -4.509824,2.72779 -3.740672,2.72417 -6.4470471,0.0303 -1.2912457,-1.28526 -2.3477193,-2.44073 -2.3477193,-2.56772 0,-0.12698 0.9061648,-1.76921 2.0136998,-3.6494 1.2243816,-2.07855 1.9589266,-3.59772 1.8739636,-3.87568 -0.317815,-1.03975 -2.1263732,-4.98179 -2.4389532,-5.31609 -0.3010774,-0.322 -5.5234129,-1.74279 -7.2555549,-1.97395 l -0.675447,-0.0901 -0.073209,-3.71531 c -0.0730911,-3.70935 -0.0722417,-3.71532 0.5291667,-3.72135 0.9881419,-0.01 7.1920341,-1.6554 7.5218643,-1.99507 0.1676982,-0.1727 0.6811626,-1.26649 1.1410321,-2.43066 0.45987,-1.16417 0.94774,-2.22978 1.084157,-2.36802 0.489878,-0.49644 0.219855,-1.20365 -1.632115,-4.27459 -1.0340801,-1.71471 -1.9438342,-3.28363 -2.0216762,-3.48648 -0.1360321,-0.3545 4.2968192,-5.08445 4.7650792,-5.08445 0.117057,0 1.369696,0.69731 2.783641,1.54958 4.536469,2.73441 3.983848,2.60873 6.631694,1.50823 3.880233,-1.6127 3.502298,-1.18622 4.476655,-5.05166 0.475542,-1.88656 0.880614,-3.75753 0.90016,-4.15772 l 0.03554,-0.7276 h 3.623638 3.623638 l 0.03774,0.7276 c 0.02074,0.40019 0.425828,2.27171 0.90016,4.15894 0.971701,3.86611 0.581425,3.4271 4.48255,5.04233 2.660483,1.10155 2.156597,1.216 6.590683,-1.49693 1.395842,-0.85403 2.661566,-1.55277 2.812717,-1.55277 0.283707,0 4.635325,4.33862 4.791059,4.77675 0.04812,0.13539 -0.819057,1.76515 -1.927071,3.62169 -1.108017,1.85653 -1.95901,3.55411 -1.891099,3.77239 0.381106,1.22494 2.099932,5.20653 2.362917,5.4736 0.402436,0.40869 7.538622,2.20068 8.023196,2.01473 0.309613,-0.1188 0.358759,0.48605 0.297325,3.65915 -0.0514,2.65485 -0.164068,3.78462 -0.373528,3.7456 -0.584896,-0.10897 -7.576124,1.73349 -7.902048,2.0825 -0.30783,0.32963 -2.118194,4.28122 -2.432564,5.3097 -0.08496,0.27796 0.649582,1.79713 1.873965,3.87568 1.107532,1.88019 2.013699,3.52242 2.013699,3.6494 0,0.12699 -1.056474,1.28246 -2.34772,2.56772 -2.214258,2.204 -2.383467,2.31791 -2.976562,2.00378 -0.345864,-0.18319 -1.911694,-1.10174 -3.47962,-2.04123 -1.991757,-1.19345 -3.028204,-1.66724 -3.439584,-1.57235 -0.704307,0.16245 -4.96262,2.01668 -5.379773,2.34255 -0.161179,0.12591 -0.676915,1.86553 -1.146082,3.86582 -0.469167,2.00029 -0.899105,3.78572 -0.955416,3.96762 -0.07506,0.24248 -1.02462,0.33073 -3.558577,0.33073 -2.54344,0 -3.478535,-0.0873 -3.540798,-0.33073 z"
         id="path9227"
         inkscape:connector-curvature="0" />
      <path
         style="fill:#b5b5b5;stroke-width:0.26458335"
         d="m 27.229309,295.30857 c -0.02249,-0.32743 -0.42943,-2.12704 -0.904298,-3.99914 -0.765358,-3.01732 -0.93986,-3.43469 -1.536758,-3.6756 -0.370348,-0.14947 -1.714045,-0.75033 -2.985993,-1.33523 l -2.312633,-1.06346 -3.318906,2.02708 c -1.825398,1.11489 -3.531797,2.02707 -3.791997,2.02707 -0.2602,0 -1.454445,-1.0054 -2.6538772,-2.23424 -2.0201507,-2.06966 -2.157385,-2.27917 -1.8630937,-2.84427 0.1747311,-0.33551 1.0754339,-1.87121 2.001562,-3.41266 0.9261279,-1.54146 1.6838699,-3.0629 1.6838699,-3.38099 0,-0.31809 -0.340826,-1.25956 -0.757391,-2.09215 -0.416565,-0.8326 -0.904674,-1.96825 -1.0846873,-2.52368 -0.1856144,-0.57271 -0.573591,-1.11529 -0.8962551,-1.2534 -0.9188754,-0.39331 -6.980961,-1.85712 -7.3630156,-1.77795 -0.2743602,0.0569 -0.3655486,-0.74647 -0.4232936,-3.72901 -0.0624062,-3.22329 -0.015553,-3.77921 0.3080476,-3.65503 0.3581642,0.13744 7.2068351,-1.41547 7.7656377,-1.76083 0.1416032,-0.0875 0.5261666,-0.90691 0.8545849,-1.82089 0.3284184,-0.91397 0.8898944,-2.208 1.2477244,-2.87561 l 0.650601,-1.21384 -1.845364,-3.05557 c -1.0149502,-1.68056 -1.9832821,-3.31326 -2.1518489,-3.62823 -0.2772876,-0.51812 -0.1095692,-0.77533 1.760533,-2.69997 1.1368599,-1.17002 2.2541389,-2.22836 2.4828419,-2.35187 0.298186,-0.16104 1.346112,0.33761 3.704167,1.76262 2.408975,1.45579 3.46523,1.9552 3.949801,1.86751 0.363802,-0.0658 1.792552,-0.5923 3.175,-1.16993 l 2.513542,-1.05025 0.970227,-3.91151 c 0.533625,-2.15133 0.90784,-4.07409 0.831588,-4.27279 -0.113157,-0.29489 0.552572,-0.36129 3.622143,-0.36129 3.03059,0 3.734424,0.0687 3.625025,0.35378 -0.07467,0.19457 0.299548,2.1191 0.831588,4.27671 l 0.967345,3.92295 2.513542,1.03941 c 1.382448,0.57168 2.811198,1.09606 3.175,1.16529 0.490416,0.0933 1.538293,-0.40293 4.052369,-1.91912 l 3.390913,-2.04499 2.117543,2.09309 c 1.164648,1.1512 2.221259,2.28038 2.348026,2.50929 0.167132,0.3018 -0.313298,1.31991 -1.74793,3.70416 -1.441987,2.39648 -1.946513,3.46732 -1.860767,3.94943 0.132469,0.7448 1.974487,5.30871 2.274758,5.63609 0.32581,0.35523 7.513005,2.04194 8.017957,1.88167 0.440087,-0.13968 0.466947,0.10581 0.398373,3.64071 -0.06572,3.38764 -0.121047,3.78261 -0.5206,3.71641 -0.465484,-0.0771 -6.535748,1.35887 -7.530224,1.78137 -0.323554,0.13746 -0.710131,0.67731 -0.896258,1.25159 -0.180012,0.55543 -0.66812,1.69108 -1.084686,2.52368 -0.416565,0.83259 -0.757391,1.77406 -0.757391,2.09215 0,0.31809 0.757741,1.83953 1.68387,3.38099 0.926129,1.54145 1.826831,3.07715 2.001562,3.41266 0.294291,0.5651 0.157057,0.77461 -1.863093,2.84427 -1.199433,1.22884 -2.379244,2.23424 -2.621801,2.23424 -0.242557,0 -1.952786,-0.91036 -3.800507,-2.02303 l -3.359494,-2.02303 -2.304121,1.05942 c -1.267269,0.58267 -2.611673,1.18377 -2.987569,1.33578 -0.617596,0.24973 -0.768424,0.62932 -1.56545,3.93967 -0.485105,2.01481 -0.882007,3.81236 -0.882007,3.99454 0,0.24905 -0.894186,0.33124 -3.603765,0.33124 -3.548731,0 -3.60439,-0.009 -3.644667,-0.59531 z"
         id="path9225"
         inkscape:connector-curvature="0" />
      <path
         style="fill:#b1b1b1;stroke-width:0.26458335"
         d="m 27.286441,295.64488 c 0.200371,-0.32421 -1.599118,-7.35075 -2.009001,-7.84463 -0.165714,-0.19967 -0.441847,-0.36304 -0.613627,-0.36304 -0.171781,0 -1.297152,-0.47625 -2.500827,-1.05833 -1.203674,-0.58209 -2.388001,-1.05815 -2.631837,-1.05791 -0.243837,2.3e-4 -1.872089,0.89197 -3.618339,1.98164 -1.74625,1.08968 -3.296692,1.98245 -3.445425,1.98395 -0.362428,0.004 -4.6243671,-4.29517 -4.6243671,-4.6644 0,-0.15975 0.8334375,-1.66603 1.8520834,-3.34729 1.2008827,-1.98205 1.8520837,-3.3356 1.8520837,-3.84965 0,-0.43605 -0.416719,-1.66235 -0.926042,-2.72513 -0.509323,-1.06278 -0.9260417,-2.06606 -0.9260417,-2.22951 0,-0.68034 -1.1178649,-1.18606 -4.3264188,-1.95728 -1.8663118,-0.44859 -3.5911244,-0.78306 -3.8329169,-0.74325 -0.3898898,0.0642 -0.4479413,-0.35644 -0.5131562,-3.71812 -0.0707049,-3.64468 -0.0538339,-3.78423 0.4385891,-3.62794 0.5980597,0.18981 6.7792482,-1.30883 7.6060941,-1.84412 0.309549,-0.2004 0.644982,-0.69862 0.7454062,-1.10715 0.1004244,-0.40854 0.5912972,-1.5967 1.0908292,-2.64036 0.499532,-1.04365 0.90824,-2.01797 0.90824,-2.16515 0,-0.14718 -0.892969,-1.72793 -1.9843751,-3.51278 -1.0914062,-1.78485 -1.984375,-3.373 -1.984375,-3.52923 0,-0.37017 4.2894521,-4.63799 4.6615071,-4.63799 0.156656,0 1.344794,0.66636 2.640307,1.48081 3.298589,2.07371 3.770485,2.28941 4.70553,2.15085 0.917901,-0.13602 5.096422,-1.84418 5.501047,-2.2488 0.393696,-0.3937 2.091821,-7.51432 1.920638,-8.05367 -0.139324,-0.43897 0.118511,-0.47294 3.589721,-0.47294 3.491902,0 3.729725,0.0318 3.587462,0.48006 -0.170493,0.53717 1.533212,7.65686 1.926309,8.04996 0.396722,0.39672 4.582179,2.0953 5.52322,2.24148 0.916114,0.14231 1.419947,-0.0976 5.261771,-2.50577 l 2.143554,-1.34362 2.325518,2.33634 c 1.778235,1.78651 2.282433,2.44862 2.142442,2.81343 -0.10069,0.2624 -0.964229,1.75874 -1.918975,3.32522 -1.450401,2.3797 -1.713884,2.99046 -1.602042,3.71353 0.169149,1.09356 1.880071,5.19067 2.350207,5.62799 0.432829,0.40262 7.088637,2.05975 7.787685,1.93894 0.471104,-0.0814 0.50772,0.14204 0.576456,3.51801 0.07316,3.59347 0.07148,3.60499 -0.529167,3.61665 -1.153501,0.0224 -7.484724,1.68286 -7.920956,2.0774 -0.241575,0.21848 -0.513186,0.69192 -0.603578,1.05208 -0.0904,0.36016 -0.517821,1.38452 -0.949838,2.27637 -0.432017,0.89185 -0.785485,1.9669 -0.785485,2.38902 0,0.48269 0.687245,1.90176 1.852084,3.82432 1.018646,1.68126 1.852083,3.19266 1.852083,3.35866 0,0.166 -1.008684,1.30527 -2.241518,2.53169 l -2.241518,2.22988 -1.13192,-0.62814 c -0.622556,-0.34548 -2.137465,-1.26225 -3.366468,-2.03728 -1.229,-0.77502 -2.440535,-1.40914 -2.692297,-1.40914 -0.251761,0 -1.442574,0.47625 -2.646246,1.05834 -1.203674,0.58208 -2.329048,1.05833 -2.500828,1.05833 -0.171781,0 -0.447083,0.16237 -0.611783,0.36082 -0.390869,0.47097 -2.190573,7.55604 -1.998345,7.86707 0.08508,0.13767 -1.434137,0.23878 -3.587827,0.23878 -2.369182,0 -3.676851,-0.0947 -3.575327,-0.259 z"
         id="path9223"
         inkscape:connector-curvature="0" />
      <path
         style="fill:#adadad;stroke-width:0.26458335"
         d="m 27.330312,295.73722 c 0.214301,-0.0877 0.03825,-1.16339 -0.592025,-3.61713 -1.028811,-4.00531 -1.285178,-4.68288 -1.771821,-4.68288 -0.192719,0 -1.335222,-0.47625 -2.538896,-1.05833 -1.203675,-0.58209 -2.488151,-1.05834 -2.854393,-1.05834 -0.366242,0 -1.875432,0.75642 -3.353756,1.68093 -4.309045,2.69477 -3.60647,2.67904 -6.160775,0.138 -1.2185955,-1.21227 -2.2156281,-2.30212 -2.2156281,-2.42191 0,-0.11978 0.8340696,-1.59248 1.853488,-3.27267 1.0194181,-1.68018 1.9238031,-3.33503 2.0097451,-3.67745 0.132785,-0.52906 -1.016901,-3.56601 -2.24893,-5.94065 -0.244357,-0.47098 -7.7865552,-2.46495 -7.9207554,-2.09405 -0.048809,0.1349 -0.1976373,0.17797 -0.3307292,0.0957 -0.33705084,-0.20831 -0.31507816,-7.52666 0.022598,-7.52666 0.1455209,0 0.2645834,0.10577 0.2645834,0.23505 0,0.24152 6.8749834,-1.39551 7.688012,-1.83063 0.2492613,-0.1334 0.5356828,-0.57117 0.6364922,-0.97283 0.1008097,-0.40166 0.590755,-1.61219 1.088768,-2.69007 0.498013,-1.07788 0.905478,-2.14545 0.905478,-2.37238 0,-0.22692 -0.892969,-1.88006 -1.9843752,-3.67363 -1.0914062,-1.79358 -1.984375,-3.34995 -1.984375,-3.4586 0,-0.10865 1.0045719,-1.1969 2.2323822,-2.41833 l 2.232382,-2.22079 1.802514,1.06241 c 0.991382,0.58432 2.509884,1.49701 3.374449,2.02819 0.864564,0.53118 1.733838,0.96578 1.931719,0.96578 0.197882,0 1.455043,-0.45902 2.79369,-1.02005 1.338648,-0.56104 2.636025,-1.09069 2.883059,-1.177 0.478988,-0.16737 0.669856,-0.74204 1.796758,-5.40972 0.395242,-1.63711 0.610123,-2.97656 0.477511,-2.97656 -0.132611,0 -0.167526,-0.11907 -0.07759,-0.26459 0.219633,-0.35537 7.276042,-0.35537 7.276042,0 0,0.14552 -0.101674,0.26459 -0.225941,0.26459 -0.24828,0 1.391727,7.14952 1.826249,7.96143 0.148717,0.27788 0.400569,0.50523 0.559671,0.50523 0.159104,0 1.434835,0.49029 2.834963,1.08954 2.998726,1.28344 2.719392,1.33268 6.73336,-1.18702 1.537332,-0.96503 2.893517,-1.7546 3.013744,-1.7546 0.268367,0 4.572537,4.30087 4.572537,4.56903 0,0.10579 -0.817811,1.53206 -1.817357,3.16947 -0.999545,1.63742 -1.897319,3.23487 -1.995048,3.54989 -0.119303,0.38456 0.173577,1.39494 0.891315,3.07485 0.587955,1.37615 1.069007,2.63226 1.069007,2.79136 0,0.15911 0.217635,0.40576 0.483637,0.54812 0.92016,0.49245 7.850383,2.11877 7.939482,1.86316 0.04881,-0.14003 0.197638,-0.18729 0.330729,-0.10504 0.133091,0.0823 0.241985,1.7579 0.241985,3.72365 0,3.28218 -0.03782,3.56236 -0.463021,3.43056 -0.696751,-0.21597 -8.048252,1.75497 -8.297386,2.22453 -0.999953,1.88471 -2.353635,5.51409 -2.234171,5.99007 0.07912,0.31524 0.977921,1.94785 1.99734,3.62803 1.019418,1.68019 1.853488,3.15289 1.853488,3.27267 0,0.11979 -0.999278,1.21188 -2.220619,2.42688 l -2.220618,2.20908 -2.475736,-1.47378 c -1.361654,-0.81058 -2.832923,-1.71721 -3.269485,-2.01475 -1.135904,-0.77415 -1.925344,-0.68191 -4.398092,0.51389 -1.203675,0.58208 -2.336599,1.05833 -2.517611,1.05833 -0.516639,0 -0.675934,0.41723 -1.689807,4.42602 -0.615518,2.43372 -0.852897,3.80647 -0.671287,3.88201 0.15453,0.0643 -1.445443,0.11686 -3.555495,0.11686 -2.110052,0 -3.699207,-0.0562 -3.531456,-0.12488 z"
         id="path9221"
         inkscape:connector-curvature="0" />
      <path
         style="fill:#aaaaaa;stroke-width:0.26458335;stroke:none;opacity:1"
         d="m 28.943539,295.70742 c 1.055026,-0.0502 2.781432,-0.0502 3.836458,0 1.055026,0.0502 0.191823,0.0913 -1.918229,0.0913 -2.110052,0 -2.973255,-0.0411 -1.918229,-0.0913 z m -1.367994,-0.65525 c -0.05549,-0.18641 -0.494298,-1.93017 -0.975123,-3.87503 -0.780714,-3.15788 -0.946252,-3.56503 -1.547586,-3.80634 -0.370348,-0.14862 -1.66706,-0.73026 -2.881582,-1.29253 -1.214522,-0.56227 -2.405147,-1.02212 -2.645833,-1.02188 -0.240686,2.3e-4 -1.866361,0.89197 -3.612611,1.98164 -1.74625,1.08967 -3.296856,1.98245 -3.445791,1.98395 -0.362283,0.004 -4.3594178,-4.03082 -4.3594178,-4.40014 0,-0.15958 0.8334376,-1.66571 1.8520834,-3.34697 2.1213754,-3.50131 2.2075074,-3.99027 1.0946924,-6.21448 -0.416565,-0.83259 -0.90235,-1.9612 -1.0795223,-2.50802 -0.1771726,-0.54682 -0.5209563,-1.09719 -0.7639637,-1.22303 -1.0164675,-0.5264 -7.5691738,-1.93302 -7.6650471,-1.6454 -0.053912,0.16174 -0.2069156,0.22677 -0.3400075,0.14451 -0.3172868,-0.19609 -0.31675161,-7.52666 5.495e-4,-7.52666 0.1333941,0 0.2854036,0.12861 0.3377989,0.2858 0.061552,0.18465 1.488673,-0.0728 4.0327226,-0.72761 l 3.9374583,-1.01339 0.9894233,-2.47333 c 0.544183,-1.36033 1.12063,-2.60453 1.280993,-2.7649 0.544773,-0.54477 0.293797,-1.20511 -1.692806,-4.45393 -1.091406,-1.78485 -1.9843748,-3.37316 -1.9843748,-3.52959 0,-0.37007 4.0251368,-4.37305 4.3972508,-4.37305 0.156476,0 1.344467,0.66637 2.63998,1.48081 4.259795,2.67799 4.041049,2.65149 8.044019,0.97422 l 2.513542,-1.05319 0.983283,-3.94206 c 0.540806,-2.16814 0.919735,-4.15043 0.842067,-4.40509 -0.129511,-0.42464 0.146862,-0.46302 3.334025,-0.46302 3.186221,0 3.463703,0.0385 3.336496,0.46302 -0.07631,0.25466 0.30262,2.23872 0.842069,4.40901 l 0.98081,3.94599 2.513542,1.04239 c 1.382448,0.57331 2.89628,1.1021 3.364074,1.17509 0.916268,0.14296 1.418635,-0.0962 5.261964,-2.5053 l 2.143747,-1.34375 2.192946,2.2044 c 1.671701,1.68043 2.149451,2.31774 2.009958,2.68126 -0.100643,0.26227 -0.964142,1.75851 -1.918888,3.32499 -2.021176,3.31619 -2.017403,3.25302 -0.42363,7.09248 l 1.043382,2.51355 4.06114,1.04062 c 2.888395,0.74011 4.091432,0.94975 4.166031,0.72595 0.05769,-0.17306 0.213783,-0.24736 0.346874,-0.16511 0.133091,0.0823 0.241985,1.75214 0.241985,3.71086 v 3.5613 l -0.612246,-0.15366 c -0.564123,-0.14159 -6.451999,1.16206 -7.76192,1.71858 -0.322691,0.13709 -0.711528,0.67883 -0.898334,1.25159 -0.181158,0.55543 -0.669266,1.71558 -1.084689,2.57811 -0.415419,0.86253 -0.755311,1.9136 -0.755311,2.33572 0,0.48269 0.687245,1.90176 1.852083,3.82432 1.018646,1.68126 1.852084,3.19282 1.852084,3.35903 0,0.1662 -0.949256,1.24587 -2.109457,2.39927 l -2.109459,2.09709 -1.131687,-0.62802 c -0.622429,-0.3454 -2.137235,-1.26212 -3.366238,-2.03714 -1.229,-0.77503 -2.453349,-1.40914 -2.720774,-1.40914 -0.267425,0 -1.107347,0.31699 -1.866492,0.70442 -0.759148,0.38743 -2.035112,0.95947 -2.835477,1.27118 l -1.455208,0.56677 -0.94144,3.82204 -0.941443,3.82205 -3.23091,0.0743 c -2.448859,0.0563 -3.25533,-0.008 -3.331805,-0.26458 z"
         id="path9219"
         inkscape:connector-curvature="0" />
    </g>
  </g>
</svg>
